<svg xmlns="http://www.w3.org/2000/svg" xmlns:xlink="http://www.w3.org/1999/xlink" width="200" zoomAndPan="magnify" viewBox="0 0 150 60" height="80" preserveAspectRatio="xMidYMid meet" version="1.0"><defs><filter x="0%" y="0%" width="100%" height="100%" id="aa54849dc5"><feColorMatrix values="0 0 0 0 1 0 0 0 0 1 0 0 0 0 1 0 0 0 1 0" color-interpolation-filters="sRGB"/></filter><mask id="f7a0f456ec"><g filter="url(#aa54849dc5)"><rect x="-15" width="180" fill="#000000" y="-6" height="72" fill-opacity="0.2"/></g></mask><clipPath id="1f9c5debc1"><path d="M 6 2 L 36 2 L 36 38 L 6 38 Z M 6 2 " clip-rule="nonzero"/></clipPath><clipPath id="2347a45ed6"><path d="M 45.503906 18.425781 L 34.945312 39.136719 L 0.199219 21.421875 L 10.761719 0.710938 Z M 45.503906 18.425781 " clip-rule="nonzero"/></clipPath><clipPath id="5338a9ee57"><path d="M 45.503906 18.425781 L 34.945312 39.136719 L 0.199219 21.421875 L 10.761719 0.710938 Z M 45.503906 18.425781 " clip-rule="nonzero"/></clipPath><clipPath id="b5b73ed167"><path d="M 45.503906 18.425781 L 34.945312 39.136719 L 0.199219 21.421875 L 10.761719 0.710938 Z M 45.503906 18.425781 " clip-rule="nonzero"/></clipPath><clipPath id="555f582321"><path d="M 45.488281 18.414062 L 34.925781 39.128906 L 0.214844 21.429688 L 10.777344 0.71875 Z M 45.488281 18.414062 " clip-rule="nonzero"/></clipPath><clipPath id="e98bd522bf"><path d="M 33 27 L 34 27 L 34 30 L 33 30 Z M 33 27 " clip-rule="nonzero"/></clipPath><clipPath id="02c735c2c8"><path d="M 45.503906 18.425781 L 34.945312 39.136719 L 0.199219 21.421875 L 10.761719 0.710938 Z M 45.503906 18.425781 " clip-rule="nonzero"/></clipPath><clipPath id="4d4b619845"><path d="M 45.503906 18.425781 L 34.945312 39.136719 L 0.199219 21.421875 L 10.761719 0.710938 Z M 45.503906 18.425781 " clip-rule="nonzero"/></clipPath><clipPath id="b46a1d5abf"><path d="M 45.503906 18.425781 L 34.945312 39.136719 L 0.199219 21.421875 L 10.761719 0.710938 Z M 45.503906 18.425781 " clip-rule="nonzero"/></clipPath><clipPath id="b2ffca3ab7"><path d="M 31 28 L 33 28 L 33 31 L 31 31 Z M 31 28 " clip-rule="nonzero"/></clipPath><clipPath id="a74419acc2"><path d="M 45.503906 18.425781 L 34.945312 39.136719 L 0.199219 21.421875 L 10.761719 0.710938 Z M 45.503906 18.425781 " clip-rule="nonzero"/></clipPath><clipPath id="f21dedff97"><path d="M 45.503906 18.425781 L 34.945312 39.136719 L 0.199219 21.421875 L 10.761719 0.710938 Z M 45.503906 18.425781 " clip-rule="nonzero"/></clipPath><clipPath id="bddfa1579d"><path d="M 45.503906 18.425781 L 34.945312 39.136719 L 0.199219 21.421875 L 10.761719 0.710938 Z M 45.503906 18.425781 " clip-rule="nonzero"/></clipPath><clipPath id="58c37ac76f"><path d="M 31 28 L 32 28 L 32 31 L 31 31 Z M 31 28 " clip-rule="nonzero"/></clipPath><clipPath id="e00ad958a1"><path d="M 45.503906 18.425781 L 34.945312 39.136719 L 0.199219 21.421875 L 10.761719 0.710938 Z M 45.503906 18.425781 " clip-rule="nonzero"/></clipPath><clipPath id="d06a791c38"><path d="M 45.503906 18.425781 L 34.945312 39.136719 L 0.199219 21.421875 L 10.761719 0.710938 Z M 45.503906 18.425781 " clip-rule="nonzero"/></clipPath><clipPath id="888130e264"><path d="M 45.503906 18.425781 L 34.945312 39.136719 L 0.199219 21.421875 L 10.761719 0.710938 Z M 45.503906 18.425781 " clip-rule="nonzero"/></clipPath><clipPath id="a1af7d02a0"><path d="M 29 30 L 31 30 L 31 31 L 29 31 Z M 29 30 " clip-rule="nonzero"/></clipPath><clipPath id="fec867b052"><path d="M 45.503906 18.425781 L 34.945312 39.136719 L 0.199219 21.421875 L 10.761719 0.710938 Z M 45.503906 18.425781 " clip-rule="nonzero"/></clipPath><clipPath id="cc8a485ee1"><path d="M 45.503906 18.425781 L 34.945312 39.136719 L 0.199219 21.421875 L 10.761719 0.710938 Z M 45.503906 18.425781 " clip-rule="nonzero"/></clipPath><clipPath id="8ad26cfd8e"><path d="M 45.503906 18.425781 L 34.945312 39.136719 L 0.199219 21.421875 L 10.761719 0.710938 Z M 45.503906 18.425781 " clip-rule="nonzero"/></clipPath><clipPath id="ef815412be"><path d="M 33 27 L 34 27 L 34 29 L 33 29 Z M 33 27 " clip-rule="nonzero"/></clipPath><clipPath id="0b8cd4124f"><path d="M 45.503906 18.425781 L 34.945312 39.136719 L 0.199219 21.421875 L 10.761719 0.710938 Z M 45.503906 18.425781 " clip-rule="nonzero"/></clipPath><clipPath id="dfea615ef2"><path d="M 45.503906 18.425781 L 34.945312 39.136719 L 0.199219 21.421875 L 10.761719 0.710938 Z M 45.503906 18.425781 " clip-rule="nonzero"/></clipPath><clipPath id="416ad88e8b"><path d="M 45.503906 18.425781 L 34.945312 39.136719 L 0.199219 21.421875 L 10.761719 0.710938 Z M 45.503906 18.425781 " clip-rule="nonzero"/></clipPath><clipPath id="661e55a550"><path d="M 30 29 L 32 29 L 32 31 L 30 31 Z M 30 29 " clip-rule="nonzero"/></clipPath><clipPath id="880367eb23"><path d="M 45.503906 18.425781 L 34.945312 39.136719 L 0.199219 21.421875 L 10.761719 0.710938 Z M 45.503906 18.425781 " clip-rule="nonzero"/></clipPath><clipPath id="fe82fe09ea"><path d="M 45.503906 18.425781 L 34.945312 39.136719 L 0.199219 21.421875 L 10.761719 0.710938 Z M 45.503906 18.425781 " clip-rule="nonzero"/></clipPath><clipPath id="c7a8d5b65d"><path d="M 45.503906 18.425781 L 34.945312 39.136719 L 0.199219 21.421875 L 10.761719 0.710938 Z M 45.503906 18.425781 " clip-rule="nonzero"/></clipPath><clipPath id="d16f4d4a6e"><path d="M 28 30 L 30 30 L 30 32 L 28 32 Z M 28 30 " clip-rule="nonzero"/></clipPath><clipPath id="2154cae3a9"><path d="M 45.503906 18.425781 L 34.945312 39.136719 L 0.199219 21.421875 L 10.761719 0.710938 Z M 45.503906 18.425781 " clip-rule="nonzero"/></clipPath><clipPath id="e7d9e1392a"><path d="M 45.503906 18.425781 L 34.945312 39.136719 L 0.199219 21.421875 L 10.761719 0.710938 Z M 45.503906 18.425781 " clip-rule="nonzero"/></clipPath><clipPath id="2935dbb1f5"><path d="M 45.503906 18.425781 L 34.945312 39.136719 L 0.199219 21.421875 L 10.761719 0.710938 Z M 45.503906 18.425781 " clip-rule="nonzero"/></clipPath><clipPath id="c6a302ebdc"><rect x="0" width="46" y="0" height="40"/></clipPath></defs><rect x="-15" width="180" fill="#ffffff" y="-6" height="72" fill-opacity="1"/><rect x="-15" width="180" fill="#ffffff" y="-6" height="72" fill-opacity="1"/><g mask="url(#f7a0f456ec)"><g transform="matrix(1, 0, 0, 1, 52, 10)"><g clip-path="url(#c6a302ebdc)"><g clip-path="url(#1f9c5debc1)"><g clip-path="url(#2347a45ed6)"><g clip-path="url(#5338a9ee57)"><g clip-path="url(#b5b73ed167)"><g clip-path="url(#555f582321)"><path fill="#231f20" d="M 8.300781 10.46875 L 8.332031 10.453125 L 8.300781 10.433594 Z M 23.355469 14.960938 C 23.371094 14.957031 23.398438 14.957031 23.398438 14.949219 C 23.40625 14.898438 23.386719 14.886719 23.347656 14.917969 C 23.339844 14.921875 23.351562 14.945312 23.355469 14.960938 Z M 28.925781 33.152344 C 28.960938 33.15625 28.992188 33.15625 29.027344 33.160156 C 29.023438 33.144531 29.023438 33.113281 29.015625 33.109375 C 28.984375 33.101562 28.949219 33.101562 28.917969 33.101562 C 28.921875 33.117188 28.925781 33.132812 28.925781 33.152344 Z M 32.601562 34.910156 C 32.621094 34.914062 32.640625 34.917969 32.660156 34.921875 C 32.648438 34.90625 32.644531 34.886719 32.628906 34.875 C 32.617188 34.867188 32.59375 34.867188 32.574219 34.863281 C 32.582031 34.878906 32.59375 34.894531 32.601562 34.910156 Z M 8.734375 6.492188 C 8.710938 6.515625 8.683594 6.535156 8.664062 6.5625 C 8.65625 6.574219 8.671875 6.597656 8.671875 6.613281 C 8.691406 6.605469 8.714844 6.601562 8.71875 6.59375 C 8.730469 6.5625 8.730469 6.527344 8.734375 6.492188 Z M 20.925781 17.429688 C 20.964844 17.425781 21.015625 17.441406 21.035156 17.421875 C 21.097656 17.359375 21.09375 17.277344 21.050781 17.203125 C 21.019531 17.148438 20.929688 17.152344 20.90625 17.210938 C 20.871094 17.285156 20.855469 17.359375 20.925781 17.429688 Z M 22.6875 30.488281 C 22.75 30.40625 22.78125 30.3125 22.753906 30.214844 C 22.734375 30.152344 22.671875 30.113281 22.613281 30.144531 C 22.570312 30.164062 22.507812 30.230469 22.515625 30.269531 C 22.53125 30.363281 22.582031 30.449219 22.6875 30.488281 Z M 21.226562 10.226562 C 21.265625 10.472656 21.359375 10.59375 21.484375 10.691406 C 21.507812 10.710938 21.570312 10.707031 21.589844 10.6875 C 21.613281 10.667969 21.617188 10.609375 21.601562 10.582031 C 21.539062 10.457031 21.4375 10.367188 21.226562 10.226562 Z M 8.492188 6.71875 C 8.1875 6.945312 8.046875 7.222656 7.945312 7.53125 C 8.050781 7.421875 8.128906 7.292969 8.21875 7.171875 C 8.308594 7.046875 8.476562 6.972656 8.492188 6.71875 Z M 21.253906 14.078125 C 21.277344 13.832031 21.15625 13.601562 21.175781 13.292969 C 20.9375 13.542969 20.953125 13.773438 21.019531 14.007812 C 21.042969 14.085938 21.140625 14.09375 21.253906 14.078125 Z M 32.746094 34.433594 C 32.902344 34.800781 33.039062 34.863281 33.296875 34.664062 C 33.519531 34.492188 33.734375 34.316406 33.941406 34.125 C 34.035156 34.039062 34.039062 33.910156 33.960938 33.796875 C 33.902344 33.714844 33.84375 33.628906 33.726562 33.640625 C 33.351562 33.847656 33.0625 34.15625 32.746094 34.433594 Z M 19.519531 21.144531 C 18.636719 20.046875 17.761719 19.070312 17.007812 18.003906 C 16.992188 17.980469 16.933594 17.988281 16.898438 17.980469 C 16.839844 18.171875 16.933594 18.324219 17.042969 18.464844 C 17.570312 19.15625 18.09375 19.847656 18.621094 20.539062 C 18.707031 20.648438 18.804688 20.753906 18.898438 20.855469 C 19.039062 21.007812 19.210938 21.109375 19.519531 21.144531 Z M 33.335938 35.019531 C 33.40625 35.257812 33.582031 35.378906 33.703125 35.539062 C 34.070312 36.023438 34.445312 36.496094 34.824219 36.972656 C 35.058594 37.257812 35.105469 37.285156 35.402344 37.410156 C 35.375 37.132812 35.203125 36.925781 35.0625 36.707031 C 34.636719 36.066406 34.210938 35.429688 33.789062 34.789062 C 33.761719 34.746094 33.734375 34.726562 33.703125 34.738281 C 33.550781 34.789062 33.453125 34.886719 33.335938 35.019531 Z M 20.605469 14 C 20.5625 13.316406 20.828125 12.710938 21.328125 12.347656 C 21.449219 12.261719 21.539062 12.164062 21.605469 12.039062 C 21.648438 11.960938 21.628906 11.886719 21.574219 11.816406 C 21.507812 11.730469 21.414062 11.753906 21.359375 11.804688 C 21.140625 12.007812 20.925781 12.21875 20.714844 12.4375 C 20.597656 12.566406 20.507812 12.726562 20.324219 12.796875 C 20.265625 12.722656 20.214844 12.660156 20.164062 12.597656 C 19.917969 12.75 19.75 12.960938 19.640625 13.222656 C 19.695312 13.289062 19.742188 13.347656 19.800781 13.421875 C 19.660156 13.898438 19.175781 14.175781 19.027344 14.6875 C 19.578125 14.46875 19.917969 13.910156 20.605469 14 Z M 20.695312 16.515625 C 20.867188 16.488281 21.011719 16.554688 21.136719 16.449219 C 21.238281 16.363281 21.351562 16.261719 21.511719 16.300781 C 21.621094 16.382812 21.652344 16.546875 21.808594 16.582031 C 21.910156 16.53125 21.941406 16.433594 21.964844 16.335938 C 22.066406 15.957031 22.046875 15.582031 21.917969 15.207031 C 21.738281 14.683594 21.167969 14.285156 20.617188 14.304688 C 20.324219 14.316406 20.089844 14.40625 19.886719 14.65625 C 19.640625 14.957031 19.4375 15.277344 19.308594 15.636719 C 19.15625 16.058594 19.234375 16.496094 19.488281 16.847656 C 19.667969 17.097656 19.972656 17.265625 20.230469 17.460938 C 20.324219 17.53125 20.472656 17.449219 20.503906 17.324219 C 20.566406 17.074219 20.625 16.820312 20.695312 16.515625 Z M 18.472656 16.085938 C 18.367188 16.144531 18.371094 16.234375 18.34375 16.304688 C 18.308594 16.398438 18.289062 16.5 18.238281 16.585938 C 18.214844 16.625 18.132812 16.660156 18.085938 16.652344 C 18.042969 16.644531 17.984375 16.578125 17.976562 16.535156 C 17.964844 16.4375 17.964844 16.332031 17.984375 16.234375 C 18.183594 15.257812 18.554688 14.34375 19.0625 13.492188 C 19.269531 13.148438 19.53125 12.832031 19.796875 12.535156 C 20.121094 12.175781 20.476562 11.847656 20.820312 11.507812 C 20.90625 11.421875 21 11.34375 21.007812 11.167969 C 20.9375 11.019531 20.824219 10.859375 20.640625 10.730469 C 19.132812 11.964844 17.957031 13.421875 17.253906 15.226562 C 17.027344 15.808594 16.886719 16.421875 16.84375 17.050781 C 16.832031 17.222656 16.859375 17.367188 16.972656 17.5 C 17.320312 17.917969 17.574219 18.414062 17.984375 18.789062 C 18.042969 18.84375 18.089844 18.914062 18.132812 18.980469 C 18.671875 19.773438 19.34375 20.453125 19.960938 21.175781 C 20.089844 21.324219 20.242188 21.378906 20.433594 21.40625 C 21.082031 21.503906 21.730469 21.492188 22.375 21.40625 C 24.097656 21.175781 25.648438 20.511719 27.082031 19.566406 C 27.179688 19.5 27.304688 19.460938 27.34375 19.273438 C 27.175781 19.050781 27.007812 18.789062 26.714844 18.578125 C 26.550781 18.988281 26.300781 19.253906 25.882812 19.332031 C 25.816406 19.347656 25.761719 19.433594 25.707031 19.488281 C 25.59375 19.601562 25.519531 19.753906 25.355469 19.816406 C 25.101562 19.816406 24.816406 19.714844 24.601562 19.914062 C 24.425781 20.074219 24.242188 20.160156 24.003906 20.152344 C 23.949219 20.148438 23.882812 20.179688 23.839844 20.214844 C 23.484375 20.519531 23.066406 20.628906 22.605469 20.640625 C 22.488281 20.640625 22.375 20.714844 22.257812 20.738281 C 22.183594 20.753906 22.0625 20.769531 22.035156 20.734375 C 21.917969 20.574219 21.789062 20.640625 21.652344 20.675781 C 21.554688 20.699219 21.457031 20.714844 21.355469 20.722656 C 21.328125 20.726562 21.285156 20.683594 21.273438 20.652344 C 21.261719 20.621094 21.265625 20.566406 21.289062 20.546875 C 21.332031 20.503906 21.386719 20.472656 21.441406 20.453125 C 21.707031 20.351562 21.972656 20.257812 22.238281 20.160156 C 22.695312 19.992188 23.136719 19.796875 23.625 19.722656 C 23.863281 19.683594 24.078125 19.558594 24.292969 19.4375 C 24.675781 19.214844 25.070312 19.011719 25.460938 18.792969 C 25.6875 18.664062 25.914062 18.527344 26.136719 18.390625 C 26.238281 18.328125 26.347656 18.269531 26.363281 18.085938 C 26.3125 18.015625 26.25 17.914062 26.175781 17.820312 C 25.480469 16.949219 24.75 16.101562 24.109375 15.1875 C 24.0625 15.121094 24.007812 15.054688 23.941406 15.015625 C 23.902344 14.988281 23.824219 14.992188 23.777344 15.015625 C 23.703125 15.046875 23.632812 15.109375 23.652344 15.199219 C 23.671875 15.296875 23.726562 15.386719 23.761719 15.480469 C 23.917969 15.910156 23.941406 16.308594 23.523438 16.621094 C 23.460938 16.667969 23.402344 16.730469 23.359375 16.796875 C 23.253906 16.953125 23.214844 17.113281 23.304688 17.304688 C 23.433594 17.582031 23.535156 17.867188 23.652344 18.148438 C 23.699219 18.257812 23.746094 18.371094 23.785156 18.484375 C 23.8125 18.566406 23.808594 18.660156 23.71875 18.6875 C 23.648438 18.707031 23.546875 18.695312 23.492188 18.65625 C 23.378906 18.570312 23.289062 18.457031 23.199219 18.347656 C 23.058594 18.179688 22.894531 18.085938 22.671875 18.105469 C 22.589844 18.109375 22.507812 18.101562 22.417969 18.097656 C 22.3125 18.191406 22.214844 18.289062 22.101562 18.371094 C 21.925781 18.5 21.757812 18.476562 21.628906 18.292969 C 21.492188 18.09375 21.375 17.882812 21.242188 17.667969 C 21.132812 17.703125 21.035156 17.734375 20.941406 17.761719 C 20.726562 17.824219 20.511719 17.882812 20.296875 17.945312 C 19.953125 18.046875 19.660156 17.980469 19.421875 17.695312 C 19.316406 17.574219 19.195312 17.464844 19.070312 17.359375 C 18.796875 17.128906 18.640625 16.824219 18.550781 16.488281 C 18.511719 16.359375 18.5 16.226562 18.472656 16.085938 Z M 23.382812 15.566406 C 23.308594 15.691406 23.390625 15.910156 23.164062 15.945312 C 23.019531 15.878906 23.089844 15.664062 22.917969 15.613281 C 22.742188 15.628906 22.558594 15.617188 22.390625 15.6875 C 22.367188 15.726562 22.332031 15.761719 22.332031 15.796875 C 22.304688 16.246094 22.191406 16.671875 21.925781 17.042969 C 21.847656 17.148438 21.824219 17.261719 21.867188 17.386719 C 21.917969 17.527344 21.898438 17.652344 21.804688 17.78125 C 21.691406 17.9375 21.707031 17.949219 21.902344 18.140625 C 22.039062 18.128906 22.09375 18 22.195312 17.9375 C 22.300781 17.875 22.390625 17.796875 22.527344 17.8125 C 22.667969 17.828125 22.8125 17.859375 22.949219 17.84375 C 23.0625 17.832031 23.128906 18.027344 23.25 17.910156 C 23.25 17.746094 23.167969 17.625 23.097656 17.503906 C 22.871094 17.109375 22.945312 16.773438 23.277344 16.484375 C 23.292969 16.46875 23.3125 16.460938 23.324219 16.445312 C 23.644531 16.117188 23.65625 16.027344 23.445312 15.542969 C 23.449219 15.496094 23.457031 15.425781 23.386719 15.445312 C 23.324219 15.460938 23.34375 15.523438 23.382812 15.566406 Z M 22.195312 14.96875 C 22.246094 14.855469 22.300781 14.753906 22.417969 14.691406 C 22.484375 14.652344 22.546875 14.59375 22.484375 14.476562 C 22.421875 14.46875 22.34375 14.464844 22.265625 14.445312 C 22.203125 14.429688 22.167969 14.375 22.175781 14.3125 C 22.179688 14.28125 22.222656 14.25 22.253906 14.230469 C 22.34375 14.167969 22.441406 14.167969 22.542969 14.203125 C 22.65625 14.238281 22.75 14.339844 22.902344 14.296875 C 22.988281 14.214844 23.089844 14.125 23.207031 14.015625 C 22.886719 13.4375 22.421875 12.992188 22.035156 12.492188 C 21.710938 12.605469 21.558594 12.832031 21.476562 13.113281 C 21.402344 13.371094 21.378906 13.660156 21.527344 13.875 C 21.714844 14.136719 21.804688 14.441406 21.972656 14.707031 C 22.035156 14.804688 22.078125 14.929688 22.214844 14.957031 C 22.203125 15.027344 22.234375 15.070312 22.292969 15.097656 C 22.460938 15.1875 22.636719 15.167969 22.816406 15.140625 C 22.898438 15.128906 22.972656 15.101562 22.925781 14.992188 C 22.765625 14.960938 22.617188 15.003906 22.46875 15.046875 C 22.359375 15.082031 22.273438 15.035156 22.195312 14.96875 Z M 27.078125 33.765625 C 27.097656 33.761719 27.117188 33.761719 27.132812 33.753906 C 27.140625 33.75 27.144531 33.738281 27.148438 33.726562 C 27.128906 33.75 27.109375 33.769531 27.085938 33.789062 C 26.941406 33.652344 26.757812 33.65625 26.578125 33.648438 C 25.949219 33.636719 25.410156 33.378906 24.902344 33.039062 C 24.753906 32.9375 24.597656 32.851562 24.441406 32.757812 C 24.4375 32.742188 24.433594 32.730469 24.425781 32.714844 C 24.4375 32.726562 24.449219 32.738281 24.460938 32.75 C 24.496094 33.082031 24.757812 33.257812 24.953125 33.480469 C 25.039062 33.574219 25.152344 33.613281 25.273438 33.640625 C 25.871094 33.757812 26.464844 33.886719 27.078125 33.765625 Z M 16.460938 17.570312 C 16.523438 17.5 16.511719 17.421875 16.464844 17.351562 C 16.050781 16.734375 15.585938 16.152344 15.085938 15.597656 C 15.078125 15.585938 15.046875 15.597656 15.011719 15.601562 C 15.082031 15.726562 15.132812 15.855469 15.214844 15.96875 C 15.574219 16.476562 15.945312 16.980469 16.316406 17.484375 C 16.347656 17.523438 16.417969 17.539062 16.46875 17.566406 C 16.445312 17.617188 16.417969 17.664062 16.515625 17.636719 C 16.496094 17.617188 16.480469 17.59375 16.460938 17.570312 Z M 17.453125 19.511719 C 17.519531 19.847656 17.597656 19.953125 17.925781 20.160156 C 17.933594 20.195312 17.925781 20.238281 17.945312 20.261719 C 17.964844 20.285156 18.011719 20.285156 18.042969 20.296875 C 18.035156 20.269531 18.035156 20.234375 18.015625 20.21875 C 17.988281 20.191406 17.945312 20.183594 17.910156 20.164062 C 17.941406 20.105469 17.917969 20.050781 17.878906 20.003906 C 17.730469 19.839844 17.582031 19.679688 17.433594 19.515625 C 17.421875 19.5 17.40625 19.488281 17.398438 19.46875 C 17.371094 19.414062 17.34375 19.410156 17.359375 19.441406 C 17.375 19.472656 17.421875 19.488281 17.453125 19.511719 Z M 14.636719 16.925781 C 14.625 16.957031 14.59375 17 14.605469 17.023438 C 14.726562 17.25 14.855469 17.472656 15.117188 17.570312 C 15.074219 17.734375 15.210938 17.742188 15.300781 17.789062 C 15.238281 18.019531 15.425781 18.15625 15.535156 18.300781 C 16.46875 19.523438 17.410156 20.734375 18.355469 21.945312 C 18.480469 22.105469 18.621094 22.25 18.761719 22.398438 C 18.773438 22.414062 18.839844 22.402344 18.859375 22.382812 C 18.882812 22.359375 18.898438 22.304688 18.886719 22.28125 C 18.855469 22.207031 18.808594 22.140625 18.757812 22.078125 C 18.261719 21.464844 17.765625 20.851562 17.269531 20.242188 C 16.605469 19.425781 15.941406 18.613281 15.277344 17.796875 C 15.21875 17.726562 15.15625 17.652344 15.09375 17.582031 C 14.964844 17.34375 14.8125 17.121094 14.617188 16.933594 C 14.59375 16.898438 14.578125 16.863281 14.554688 16.835938 C 14.515625 16.792969 14.488281 16.796875 14.484375 16.847656 C 14.484375 16.855469 14.511719 16.871094 14.53125 16.878906 C 14.5625 16.894531 14.601562 16.910156 14.636719 16.925781 Z M 14.546875 14.859375 C 14.503906 14.90625 14.496094 14.949219 14.523438 15.007812 C 14.589844 15.164062 14.722656 15.234375 14.871094 15.292969 C 14.863281 15.308594 14.855469 15.324219 14.855469 15.339844 C 14.851562 15.351562 14.863281 15.363281 14.867188 15.375 C 14.859375 15.347656 14.855469 15.324219 14.847656 15.300781 C 14.738281 15.15625 14.632812 15.011719 14.527344 14.871094 C 14.511719 14.839844 14.5 14.800781 14.476562 14.777344 C 14.460938 14.757812 14.421875 14.765625 14.390625 14.761719 C 14.410156 14.785156 14.421875 14.816406 14.445312 14.828125 C 14.476562 14.847656 14.511719 14.851562 14.546875 14.859375 Z M 22.84375 12.46875 C 22.882812 12.414062 22.867188 12.367188 22.835938 12.3125 C 22.808594 12.265625 22.785156 12.25 22.75 12.289062 C 22.742188 12.296875 22.738281 12.328125 22.746094 12.339844 C 22.78125 12.382812 22.824219 12.421875 22.863281 12.464844 C 22.894531 12.5 22.921875 12.535156 22.917969 12.527344 C 22.921875 12.53125 22.882812 12.5 22.84375 12.46875 Z M 29.253906 34.015625 C 29.34375 33.910156 29.246094 33.851562 29.195312 33.78125 C 29.191406 33.773438 29.160156 33.777344 29.152344 33.785156 C 29.132812 33.8125 29.101562 33.847656 29.105469 33.871094 C 29.128906 33.945312 29.191406 33.988281 29.269531 34.007812 C 29.253906 34.140625 29.332031 34.191406 29.441406 34.222656 C 29.386719 34.339844 29.476562 34.417969 29.53125 34.488281 C 29.804688 34.835938 30.085938 35.171875 30.355469 35.5 C 30.738281 35.4375 31.039062 35.273438 31.316406 35.066406 C 32.175781 34.433594 33.050781 33.824219 33.867188 33.132812 C 34.019531 33 34.164062 32.863281 34.308594 32.71875 C 34.464844 32.5625 34.570312 32.367188 34.652344 32.160156 C 34.675781 32.097656 34.628906 32.050781 34.578125 32.011719 C 34.625 31.929688 34.605469 31.851562 34.5625 31.785156 C 34.328125 31.40625 34.082031 31.035156 33.773438 30.71875 C 33.683594 30.628906 33.609375 30.484375 33.445312 30.5 C 33.390625 30.597656 33.457031 30.652344 33.511719 30.707031 C 33.816406 31.003906 34.066406 31.34375 34.308594 31.695312 C 34.386719 31.808594 34.4375 31.949219 34.578125 32.011719 C 34.417969 32.203125 34.347656 32.21875 34.257812 32.09375 C 34.164062 31.964844 34.078125 31.824219 33.984375 31.695312 C 33.730469 31.351562 33.488281 31.003906 33.160156 30.722656 C 33.082031 30.65625 33.015625 30.6875 32.957031 30.789062 C 33.070312 30.941406 33.191406 31.101562 33.3125 31.265625 C 33.539062 31.574219 33.769531 31.886719 33.992188 32.199219 C 34.039062 32.261719 34.074219 32.339844 34.097656 32.414062 C 34.105469 32.4375 34.078125 32.492188 34.050781 32.507812 C 34.023438 32.523438 33.960938 32.527344 33.941406 32.511719 C 33.832031 32.390625 33.726562 32.269531 33.628906 32.144531 C 33.359375 31.789062 33.09375 31.429688 32.820312 31.074219 C 32.785156 31.03125 32.730469 31 32.679688 30.96875 C 32.667969 30.960938 32.636719 30.964844 32.625 30.976562 C 32.601562 31 32.570312 31.035156 32.574219 31.066406 C 32.582031 31.195312 32.679688 31.277344 32.746094 31.378906 C 33.042969 31.789062 33.335938 32.203125 33.628906 32.617188 C 33.664062 32.664062 33.691406 32.71875 33.707031 32.777344 C 33.71875 32.808594 33.707031 32.863281 33.683594 32.878906 C 33.65625 32.898438 33.601562 32.898438 33.566406 32.886719 C 33.40625 32.820312 33.339844 32.660156 33.246094 32.53125 C 32.949219 32.121094 32.652344 31.710938 32.355469 31.300781 C 32.277344 31.191406 32.199219 31.195312 32.097656 31.300781 C 32.125 31.367188 32.148438 31.445312 32.191406 31.507812 C 32.449219 31.871094 32.710938 32.230469 32.972656 32.589844 C 33.082031 32.738281 33.199219 32.878906 33.300781 33.03125 C 33.335938 33.082031 33.320312 33.148438 33.261719 33.179688 C 33.230469 33.195312 33.171875 33.199219 33.148438 33.179688 C 33.082031 33.132812 33.027344 33.074219 32.976562 33.015625 C 32.578125 32.554688 32.222656 32.0625 31.898438 31.558594 C 31.789062 31.597656 31.71875 31.65625 31.757812 31.746094 C 31.871094 32.007812 32.039062 32.234375 32.222656 32.453125 C 32.417969 32.6875 32.601562 32.929688 32.785156 33.167969 C 32.835938 33.234375 32.867188 33.320312 32.78125 33.371094 C 32.699219 33.421875 32.621094 33.367188 32.566406 33.304688 C 32.472656 33.199219 32.390625 33.085938 32.304688 32.972656 C 32.042969 32.632812 31.785156 32.296875 31.523438 31.960938 C 31.507812 31.9375 31.457031 31.9375 31.421875 31.929688 C 31.375 31.921875 31.339844 32.019531 31.375 32.074219 C 31.664062 32.492188 31.917969 32.933594 32.261719 33.308594 C 32.359375 33.414062 32.460938 33.511719 32.492188 33.65625 C 32.5 33.6875 32.480469 33.742188 32.457031 33.757812 C 32.429688 33.773438 32.375 33.777344 32.347656 33.761719 C 32.296875 33.734375 32.246094 33.691406 32.207031 33.648438 C 31.9375 33.34375 31.679688 33.03125 31.460938 32.6875 C 31.363281 32.535156 31.25 32.390625 31.136719 32.25 C 31.097656 32.203125 31.027344 32.195312 30.972656 32.234375 C 30.917969 32.269531 30.890625 32.328125 30.921875 32.386719 C 30.96875 32.472656 31.027344 32.554688 31.085938 32.636719 C 31.386719 33.046875 31.6875 33.453125 31.988281 33.863281 C 32.039062 33.929688 32.070312 34 32.035156 34.082031 C 31.921875 34.125 31.832031 34.074219 31.769531 33.996094 C 31.640625 33.839844 31.519531 33.675781 31.410156 33.507812 C 31.175781 33.152344 30.917969 32.816406 30.59375 32.488281 C 30.503906 32.570312 30.359375 32.566406 30.371094 32.777344 C 30.75 33.28125 31.152344 33.816406 31.550781 34.351562 C 31.585938 34.398438 31.585938 34.46875 31.53125 34.507812 C 31.503906 34.523438 31.449219 34.523438 31.414062 34.507812 C 31.238281 34.4375 31.136719 34.285156 31.03125 34.132812 C 30.769531 33.769531 30.507812 33.410156 30.238281 33.054688 C 30.183594 32.976562 30.117188 32.886719 30 32.902344 C 29.890625 32.933594 29.839844 33.019531 29.777344 33.128906 C 29.980469 33.515625 30.296875 33.835938 30.585938 34.171875 C 30.703125 34.308594 30.832031 34.4375 30.9375 34.585938 C 31.007812 34.683594 30.96875 34.777344 30.828125 34.820312 C 30.445312 34.414062 30.058594 34 29.71875 33.546875 C 29.671875 33.484375 29.613281 33.425781 29.550781 33.378906 C 29.53125 33.363281 29.476562 33.390625 29.445312 33.40625 C 29.425781 33.414062 29.40625 33.441406 29.410156 33.453125 C 29.425781 33.53125 29.433594 33.613281 29.472656 33.679688 C 29.667969 34.015625 29.917969 34.308594 30.171875 34.597656 C 30.289062 34.738281 30.40625 34.878906 30.515625 35.023438 C 30.558594 35.078125 30.539062 35.136719 30.476562 35.164062 C 30.441406 35.179688 30.382812 35.1875 30.363281 35.167969 C 30.257812 35.074219 30.167969 34.964844 30.0625 34.871094 C 29.839844 34.667969 29.710938 34.371094 29.425781 34.230469 C 29.460938 34.085938 29.367188 34.042969 29.253906 34.015625 Z M 25.375 19.316406 C 25.414062 19.347656 25.460938 19.386719 25.464844 19.289062 C 25.433594 19.304688 25.40625 19.320312 25.378906 19.335938 C 25.269531 19.308594 25.191406 19.355469 25.125 19.4375 C 25.300781 19.519531 25.300781 19.519531 25.375 19.316406 Z M 15.082031 19.585938 C 15.042969 19.746094 15.160156 19.765625 15.265625 19.796875 C 15.207031 19.949219 15.34375 19.960938 15.421875 20.007812 C 15.429688 20.027344 15.433594 20.042969 15.4375 20.0625 C 15.425781 20.046875 15.414062 20.03125 15.402344 20.015625 C 15.414062 19.898438 15.328125 19.855469 15.246094 19.808594 C 15.25 19.6875 15.191406 19.617188 15.074219 19.589844 C 15.109375 19.4375 15.007812 19.402344 14.890625 19.382812 C 14.933594 19.332031 14.929688 19.28125 14.898438 19.230469 C 14.75 18.984375 14.59375 18.738281 14.359375 18.5625 C 14.359375 18.445312 14.273438 18.394531 14.179688 18.347656 C 14.1875 18.191406 14.078125 18.09375 13.996094 17.980469 C 13.539062 17.359375 13.082031 16.738281 12.625 16.117188 C 12.53125 15.988281 12.429688 15.863281 12.324219 15.734375 C 12.285156 15.6875 12.230469 15.664062 12.160156 15.691406 C 12.125 15.824219 12.207031 15.917969 12.273438 16.015625 C 12.792969 16.765625 13.367188 17.472656 13.949219 18.179688 C 14.015625 18.261719 14.097656 18.316406 14.199219 18.339844 C 14.15625 18.496094 14.261719 18.53125 14.375 18.554688 C 14.367188 18.589844 14.339844 18.636719 14.351562 18.660156 C 14.511719 18.914062 14.679688 19.167969 14.90625 19.375 C 14.90625 19.496094 14.96875 19.558594 15.082031 19.585938 Z M 11.183594 13.109375 C 11.136719 13.246094 11.25 13.277344 11.332031 13.324219 C 11.363281 13.582031 11.550781 13.75 11.695312 13.9375 C 12.054688 14.402344 12.367188 14.898438 12.65625 15.414062 C 13.183594 16.351562 13.804688 17.230469 14.546875 18.015625 C 15.222656 18.726562 15.789062 19.511719 16.328125 20.324219 C 16.875 21.152344 17.484375 21.9375 18.136719 22.691406 C 18.761719 23.410156 19.386719 24.128906 19.847656 24.972656 C 20.109375 25.453125 20.453125 25.882812 20.835938 26.28125 C 21.222656 26.691406 21.59375 27.125 21.964844 27.554688 C 22.625 28.324219 23.261719 29.113281 23.9375 29.871094 C 24.597656 30.613281 25.289062 31.324219 25.964844 32.054688 C 26.097656 32.199219 26.253906 32.265625 26.441406 32.285156 C 26.746094 32.3125 27.039062 32.394531 27.332031 32.480469 C 27.976562 32.667969 28.628906 32.816406 29.304688 32.796875 C 29.367188 32.796875 29.421875 32.785156 29.429688 32.730469 C 29.421875 32.632812 29.355469 32.632812 29.296875 32.621094 C 28.636719 32.511719 27.976562 32.394531 27.3125 32.296875 C 27.167969 32.277344 27.042969 32.234375 26.910156 32.179688 C 26.589844 32.035156 26.328125 31.816406 26.089844 31.558594 C 25.609375 31.039062 25.125 30.523438 24.644531 29.996094 C 24.101562 29.398438 23.578125 28.777344 23.019531 28.1875 C 22.65625 27.804688 22.332031 27.390625 22.015625 26.96875 C 21.640625 26.46875 21.261719 25.964844 20.886719 25.464844 C 20.523438 24.976562 20.164062 24.484375 19.804688 24 C 19.769531 23.949219 19.726562 23.902344 19.683594 23.859375 C 18.660156 22.8125 17.757812 21.667969 16.875 20.5 C 15.917969 19.242188 14.960938 17.980469 14.003906 16.71875 C 13.257812 15.734375 12.503906 14.75 11.847656 13.703125 C 11.71875 13.496094 11.550781 13.375 11.316406 13.332031 C 11.363281 13.191406 11.242188 13.167969 11.164062 13.117188 C 11.144531 13.078125 11.128906 13.042969 11.109375 13.007812 C 11.105469 13 11.078125 13.003906 11.0625 13.003906 C 11.101562 13.039062 11.140625 13.074219 11.183594 13.109375 Z M 10.28125 13.492188 C 10.269531 13.460938 10.261719 13.425781 10.242188 13.394531 C 10.238281 13.382812 10.214844 13.367188 10.203125 13.367188 C 10.152344 13.382812 10.15625 13.402344 10.207031 13.429688 C 10.238281 13.445312 10.265625 13.46875 10.292969 13.492188 L 10.304688 13.527344 Z M 10.351562 12.570312 C 10.3125 12.710938 10.4375 12.726562 10.511719 12.78125 C 10.511719 12.800781 10.523438 12.855469 10.492188 12.785156 C 10.488281 12.675781 10.414062 12.625 10.328125 12.582031 C 10.339844 12.445312 10.253906 12.394531 10.136719 12.367188 C 10.210938 12.257812 10.117188 12.179688 10.070312 12.101562 C 9.71875 11.515625 9.363281 10.933594 9.019531 10.363281 C 8.859375 10.328125 8.726562 10.296875 8.589844 10.265625 C 8.628906 10.210938 8.609375 10.164062 8.578125 10.117188 C 8.546875 10.074219 8.523438 10.058594 8.492188 10.09375 C 8.484375 10.101562 8.484375 10.132812 8.496094 10.144531 C 8.53125 10.183594 8.574219 10.21875 8.613281 10.257812 C 8.621094 10.292969 8.621094 10.339844 8.640625 10.367188 C 9.148438 11.03125 9.605469 11.730469 10.160156 12.359375 C 10.164062 12.480469 10.253906 12.53125 10.351562 12.570312 Z M 8.828125 13.191406 C 8.886719 13.261719 8.941406 13.332031 9 13.402344 C 8.984375 13.519531 9.074219 13.5625 9.152344 13.617188 C 9.148438 13.738281 9.234375 13.785156 9.320312 13.832031 C 9.335938 13.863281 9.347656 13.894531 9.367188 13.921875 C 9.371094 13.929688 9.390625 13.925781 9.402344 13.929688 C 9.367188 13.898438 9.335938 13.871094 9.300781 13.839844 C 9.359375 13.679688 9.238281 13.65625 9.132812 13.625 C 9.195312 13.472656 9.046875 13.46875 8.976562 13.410156 C 8.972656 13.300781 8.875 13.261719 8.808594 13.195312 C 8.808594 13.183594 8.808594 13.167969 8.808594 13.15625 C 8.816406 13.167969 8.820312 13.179688 8.828125 13.191406 Z M 8.960938 11.769531 C 8.941406 11.734375 8.929688 11.695312 8.90625 11.664062 C 8.871094 11.621094 8.835938 11.628906 8.832031 11.679688 C 8.828125 11.691406 8.859375 11.707031 8.875 11.714844 C 8.910156 11.734375 8.949219 11.746094 8.984375 11.761719 C 8.964844 11.796875 8.902344 11.84375 9.003906 11.855469 C 8.988281 11.828125 8.972656 11.796875 8.960938 11.769531 Z M 8.519531 10.75 C 8.53125 10.78125 8.542969 10.820312 8.5625 10.851562 C 8.566406 10.859375 8.59375 10.855469 8.609375 10.855469 C 8.570312 10.824219 8.535156 10.789062 8.496094 10.757812 C 8.496094 10.738281 8.496094 10.722656 8.492188 10.707031 C 8.492188 10.699219 8.484375 10.691406 8.480469 10.679688 C 8.492188 10.703125 8.503906 10.726562 8.519531 10.75 Z M 8.808594 9.824219 C 8.84375 9.671875 8.738281 9.640625 8.628906 9.613281 C 8.730469 9.511719 8.617188 9.441406 8.585938 9.359375 C 8.582031 9.359375 8.546875 9.367188 8.53125 9.378906 C 8.519531 9.390625 8.511719 9.414062 8.511719 9.429688 C 8.519531 9.515625 8.574219 9.570312 8.648438 9.605469 C 8.648438 9.722656 8.726562 9.78125 8.824219 9.816406 C 8.816406 9.859375 8.757812 9.929688 8.871094 9.894531 C 8.851562 9.871094 8.828125 9.847656 8.808594 9.824219 Z M 8.09375 10.152344 C 8.109375 10.023438 8 10 7.921875 9.949219 C 7.929688 9.933594 7.9375 9.921875 7.941406 9.902344 C 7.945312 9.894531 7.9375 9.882812 7.9375 9.871094 C 7.9375 9.894531 7.941406 9.917969 7.941406 9.941406 C 8 10.011719 8.058594 10.078125 8.117188 10.144531 C 8.117188 10.160156 8.121094 10.179688 8.125 10.195312 C 8.125 10.203125 8.136719 10.210938 8.140625 10.21875 C 8.125 10.195312 8.109375 10.175781 8.09375 10.152344 Z M 6.941406 9.726562 C 6.964844 9.636719 7.039062 9.546875 6.949219 9.453125 C 6.980469 9.285156 7.140625 9.160156 7.128906 8.949219 C 6.980469 9.101562 6.921875 9.257812 6.96875 9.449219 C 6.953125 9.539062 6.902344 9.628906 6.957031 9.722656 L 6.96875 9.753906 Z M 32.730469 24.652344 C 32.785156 24.722656 32.839844 24.792969 32.894531 24.863281 C 33.003906 25.183594 33.136719 25.488281 33.453125 25.664062 C 33.40625 25.824219 33.539062 25.832031 33.628906 25.875 C 33.625 25.894531 33.613281 25.910156 33.613281 25.929688 C 33.613281 25.941406 33.628906 25.949219 33.636719 25.960938 C 33.625 25.9375 33.617188 25.910156 33.605469 25.882812 C 33.601562 25.773438 33.53125 25.714844 33.4375 25.671875 C 33.398438 25.375 33.222656 25.152344 33.03125 24.941406 C 32.996094 24.902344 32.925781 24.894531 32.875 24.871094 C 32.914062 24.734375 32.765625 24.730469 32.722656 24.652344 C 32.6875 24.632812 32.6875 24.621094 32.726562 24.617188 C 32.726562 24.617188 32.730469 24.640625 32.730469 24.652344 Z M 28.34375 33.429688 L 28.304688 33.429688 L 28.335938 33.417969 C 28.382812 33.421875 28.433594 33.421875 28.480469 33.425781 C 28.46875 33.414062 28.453125 33.390625 28.445312 33.394531 C 28.410156 33.402344 28.375 33.417969 28.34375 33.429688 Z M 31.574219 23.128906 C 31.503906 23.300781 31.648438 23.304688 31.746094 23.34375 C 31.695312 23.390625 31.699219 23.445312 31.734375 23.5 C 31.917969 23.761719 32.105469 24.027344 32.382812 24.207031 L 32.394531 24.242188 L 32.363281 24.214844 C 32.414062 24.101562 32.335938 24.023438 32.28125 23.953125 C 32.109375 23.738281 31.949219 23.519531 31.726562 23.351562 C 31.699219 23.253906 31.640625 23.1875 31.554688 23.136719 C 31.550781 23.019531 31.488281 22.949219 31.375 22.925781 C 31.433594 22.753906 31.292969 22.664062 31.210938 22.5625 C 30.597656 21.78125 29.980469 21.003906 29.355469 20.230469 C 29.0625 19.867188 28.746094 19.523438 28.441406 19.171875 C 28.386719 19.105469 28.3125 19.0625 28.234375 19.113281 C 28.152344 19.164062 28.15625 19.261719 28.207031 19.328125 C 28.453125 19.671875 28.710938 20.011719 28.964844 20.351562 C 28.988281 20.382812 29.023438 20.425781 29.054688 20.429688 C 29.386719 20.460938 29.507812 20.742188 29.671875 20.960938 C 30.144531 21.570312 30.636719 22.164062 31.148438 22.738281 C 31.21875 22.816406 31.285156 22.890625 31.386719 22.917969 C 31.359375 23.066406 31.457031 23.105469 31.574219 23.128906 Z M 30.351562 22.828125 C 30.371094 22.933594 30.449219 22.984375 30.535156 23.035156 C 30.503906 23.179688 30.621094 23.203125 30.710938 23.246094 C 30.652344 23.40625 30.804688 23.40625 30.882812 23.460938 C 30.820312 23.617188 30.976562 23.617188 31.042969 23.679688 C 31.121094 23.984375 31.378906 24.171875 31.539062 24.425781 C 31.835938 24.886719 32.167969 25.324219 32.601562 25.675781 C 32.644531 25.710938 32.679688 25.765625 32.703125 25.820312 C 32.714844 25.847656 32.707031 25.902344 32.6875 25.925781 C 32.667969 25.953125 32.613281 25.976562 32.585938 25.96875 C 32.527344 25.953125 32.476562 25.921875 32.429688 25.886719 C 32.035156 25.589844 31.738281 25.203125 31.449219 24.808594 C 30.867188 24.003906 30.203125 23.257812 29.667969 22.417969 C 29.660156 22.402344 29.644531 22.382812 29.632812 22.371094 C 29.300781 22.035156 29.042969 21.644531 28.8125 21.238281 C 28.46875 20.640625 27.972656 20.167969 27.535156 19.613281 C 27.003906 19.972656 26.488281 20.285156 25.949219 20.5625 C 25.390625 20.847656 24.808594 21.085938 24.210938 21.28125 C 23.628906 21.46875 23.039062 21.601562 22.433594 21.691406 C 21.8125 21.785156 21.183594 21.75 20.550781 21.753906 C 20.574219 21.8125 20.574219 21.855469 20.597656 21.886719 C 21.648438 23.175781 22.628906 24.523438 23.730469 25.773438 C 24.148438 26.242188 24.601562 26.683594 25.042969 27.132812 C 25.511719 27.609375 25.988281 28.078125 26.457031 28.558594 C 26.59375 28.699219 26.746094 28.84375 26.738281 29.085938 C 26.664062 29.082031 26.585938 29.101562 26.554688 29.070312 C 26.25 28.773438 25.949219 28.472656 25.652344 28.167969 C 25.074219 27.570312 24.488281 26.980469 23.921875 26.371094 C 23.453125 25.867188 22.992188 25.351562 22.554688 24.816406 C 21.953125 24.078125 21.378906 23.316406 20.789062 22.570312 C 20.597656 22.328125 20.390625 22.105469 20.199219 21.871094 C 20.023438 21.65625 19.796875 21.558594 19.523438 21.527344 C 19.53125 21.589844 19.523438 21.640625 19.542969 21.664062 C 20.152344 22.402344 20.746094 23.148438 21.371094 23.867188 C 22.195312 24.816406 23.042969 25.75 23.886719 26.683594 C 24.417969 27.269531 24.960938 27.847656 25.5 28.425781 C 25.722656 28.664062 25.917969 28.921875 26.082031 29.203125 C 26.113281 29.257812 26.085938 29.324219 26.027344 29.351562 C 25.992188 29.367188 25.9375 29.371094 25.910156 29.351562 C 25.863281 29.320312 25.824219 29.273438 25.785156 29.226562 C 25.605469 29.007812 25.4375 28.777344 25.246094 28.566406 C 24.753906 28.027344 24.246094 27.5 23.757812 26.960938 C 22.898438 26.011719 22.039062 25.0625 21.203125 24.097656 C 20.511719 23.300781 19.828125 22.492188 19.179688 21.660156 C 18.933594 21.34375 18.628906 21.144531 18.304688 20.90625 C 18.296875 21.078125 18.386719 21.164062 18.464844 21.257812 C 19.015625 21.933594 19.570312 22.605469 20.125 23.28125 C 20.511719 23.75 20.90625 24.214844 21.289062 24.6875 C 21.558594 25.019531 21.8125 25.359375 22.070312 25.699219 C 22.109375 25.746094 22.160156 25.796875 22.167969 25.851562 C 22.25 26.289062 22.570312 26.527344 22.898438 26.769531 C 23.042969 26.875 23.183594 27 23.300781 27.136719 C 23.546875 27.433594 23.789062 27.734375 24.023438 28.039062 C 24.800781 29.058594 25.664062 30.003906 26.582031 30.894531 C 26.644531 30.960938 26.753906 31.011719 26.707031 31.140625 C 26.679688 31.222656 26.519531 31.203125 26.390625 31.097656 C 26.328125 31.042969 26.269531 30.988281 26.210938 30.929688 C 25.730469 30.40625 25.207031 29.925781 24.757812 29.371094 C 24.226562 28.707031 23.679688 28.050781 23.140625 27.390625 C 23.023438 27.246094 22.09375 26.40625 21.886719 26.265625 C 21.878906 26.230469 21.871094 26.195312 21.855469 26.160156 C 21.855469 26.152344 21.824219 26.15625 21.808594 26.152344 C 21.839844 26.1875 21.875 26.222656 21.90625 26.257812 C 21.863281 26.34375 21.914062 26.414062 21.964844 26.472656 C 22.371094 26.921875 22.683594 27.445312 23.113281 27.882812 C 23.453125 28.230469 23.789062 28.585938 24.105469 28.949219 C 24.8125 29.761719 25.523438 30.566406 26.261719 31.34375 C 26.460938 31.554688 26.691406 31.714844 26.914062 31.890625 C 27.003906 31.964844 27.132812 32.019531 27.246094 32.027344 C 27.792969 32.066406 28.3125 32.261719 28.855469 32.316406 C 28.917969 32.320312 28.972656 32.3125 29.011719 32.257812 C 29.136719 32.304688 29.25 32.4375 29.394531 32.3125 C 29.429688 32.328125 29.460938 32.347656 29.496094 32.355469 C 29.519531 32.359375 29.546875 32.34375 29.574219 32.339844 C 29.546875 32.320312 29.519531 32.289062 29.492188 32.289062 C 29.460938 32.285156 29.433594 32.316406 29.402344 32.335938 C 29.277344 32.289062 29.164062 32.164062 29.019531 32.28125 C 28.878906 32.15625 28.628906 32.191406 28.546875 31.980469 C 28.617188 31.878906 28.703125 31.894531 28.78125 31.90625 C 29.058594 31.953125 29.347656 31.972656 29.613281 32.050781 C 29.988281 32.164062 30.285156 32.066406 30.546875 31.808594 C 30.59375 31.769531 30.628906 31.71875 30.679688 31.683594 C 31.214844 31.265625 31.734375 30.816406 32.363281 30.527344 C 32.730469 30.359375 33.0625 30.128906 33.378906 29.875 C 33.523438 29.753906 33.636719 29.621094 33.691406 29.441406 C 33.871094 28.867188 34.054688 28.292969 34.230469 27.71875 C 34.3125 27.441406 34.300781 27.15625 34.25 26.878906 C 34.203125 26.617188 34.101562 26.371094 33.808594 26.277344 C 33.816406 26.257812 33.832031 26.242188 33.832031 26.226562 C 33.835938 26.214844 33.820312 26.199219 33.8125 26.1875 C 33.820312 26.214844 33.828125 26.242188 33.832031 26.269531 C 33.84375 26.308594 33.851562 26.347656 33.859375 26.386719 C 33.875 26.445312 33.878906 26.511719 33.824219 26.550781 C 33.746094 26.605469 33.675781 26.578125 33.621094 26.503906 C 33.382812 26.175781 33.105469 25.875 32.910156 25.523438 C 32.527344 24.828125 31.964844 24.273438 31.476562 23.660156 C 31.445312 23.617188 31.375 23.609375 31.320312 23.582031 C 31.324219 23.566406 31.332031 23.550781 31.332031 23.535156 C 31.335938 23.527344 31.324219 23.515625 31.320312 23.503906 C 31.324219 23.53125 31.332031 23.554688 31.339844 23.578125 C 31.222656 23.789062 31.21875 23.789062 31.019531 23.6875 C 30.964844 23.613281 30.914062 23.542969 30.859375 23.46875 C 30.804688 23.394531 30.746094 23.324219 30.691406 23.253906 C 30.632812 23.183594 30.574219 23.113281 30.511719 23.042969 C 30.503906 22.925781 30.414062 22.882812 30.328125 22.832031 C 30.332031 22.816406 30.335938 22.800781 30.335938 22.785156 C 30.335938 22.777344 30.328125 22.769531 30.328125 22.757812 C 30.335938 22.78125 30.34375 22.804688 30.351562 22.828125 Z M 29.453125 21.578125 C 29.394531 21.507812 29.339844 21.441406 29.285156 21.375 C 29.28125 21.359375 29.273438 21.34375 29.265625 21.328125 C 29.28125 21.339844 29.292969 21.355469 29.304688 21.367188 C 29.285156 21.5 29.402344 21.515625 29.476562 21.570312 C 29.46875 21.585938 29.457031 21.601562 29.457031 21.621094 C 29.453125 21.632812 29.46875 21.644531 29.472656 21.65625 C 29.464844 21.628906 29.457031 21.601562 29.453125 21.578125 Z M 23.503906 31.082031 C 23.558594 31.152344 23.609375 31.222656 23.664062 31.296875 C 23.9375 31.847656 24.371094 32.265625 24.824219 32.65625 C 25.222656 33 25.671875 33.265625 26.210938 33.324219 C 26.277344 33.328125 26.328125 33.3125 26.355469 33.25 C 26.433594 33.300781 26.503906 33.386719 26.621094 33.316406 C 26.535156 33.246094 26.453125 33.214844 26.359375 33.273438 C 26.265625 33.234375 26.171875 33.171875 26.078125 33.167969 C 25.792969 33.164062 25.597656 32.992188 25.40625 32.820312 C 24.949219 32.402344 24.492188 31.984375 24.039062 31.558594 C 23.921875 31.449219 23.8125 31.332031 23.644531 31.304688 C 23.671875 31.175781 23.546875 31.15625 23.492188 31.085938 L 23.484375 31.050781 Z M 26.144531 18.894531 L 26.113281 18.90625 L 26.144531 18.882812 C 26.175781 18.875 26.214844 18.871094 26.246094 18.859375 C 26.253906 18.855469 26.25 18.828125 26.253906 18.808594 C 26.21875 18.839844 26.179688 18.867188 26.144531 18.894531 Z M 21.011719 28.386719 C 21.070312 28.457031 21.128906 28.527344 21.1875 28.597656 C 21.207031 28.699219 21.25 28.78125 21.355469 28.808594 C 21.285156 29 21.40625 29.101562 21.539062 29.195312 C 21.5625 29.226562 21.578125 29.257812 21.601562 29.285156 C 21.636719 29.324219 21.664062 29.320312 21.664062 29.277344 C 21.664062 29.265625 21.636719 29.253906 21.621094 29.246094 C 21.585938 29.230469 21.554688 29.21875 21.519531 29.203125 C 21.605469 29.003906 21.457031 28.917969 21.335938 28.816406 C 21.332031 28.703125 21.222656 28.675781 21.164062 28.605469 C 21.148438 28.5 21.058594 28.460938 20.992188 28.394531 C 20.988281 28.378906 20.988281 28.367188 20.988281 28.351562 C 20.996094 28.363281 21.003906 28.375 21.011719 28.386719 Z M 26.253906 17.316406 C 26.214844 17.460938 26.335938 17.480469 26.417969 17.53125 C 26.394531 17.652344 26.5 17.683594 26.566406 17.742188 L 26.566406 17.785156 L 26.546875 17.746094 C 26.496094 17.679688 26.445312 17.609375 26.398438 17.539062 C 26.34375 17.46875 26.289062 17.394531 26.234375 17.324219 C 26.214844 17.289062 26.195312 17.257812 26.167969 17.226562 C 26.164062 17.21875 26.140625 17.222656 26.125 17.222656 C 26.167969 17.253906 26.210938 17.285156 26.253906 17.316406 Z M 20.941406 27.40625 C 20.914062 27.546875 21.019531 27.578125 21.113281 27.617188 C 21.128906 27.945312 21.347656 28.121094 21.601562 28.269531 C 21.726562 28.640625 22.023438 28.890625 22.261719 29.183594 C 22.339844 29.28125 22.417969 29.371094 22.542969 29.398438 C 22.695312 29.792969 22.984375 30.074219 23.316406 30.316406 C 23.304688 30.445312 23.394531 30.492188 23.492188 30.53125 C 23.519531 30.6875 23.65625 30.730469 23.769531 30.796875 C 23.734375 30.9375 23.851562 30.964844 23.9375 31.011719 C 23.949219 31.039062 23.878906 31.117188 23.984375 31.085938 C 23.960938 31.0625 23.9375 31.042969 23.917969 31.019531 C 23.941406 30.882812 23.832031 30.851562 23.746094 30.804688 C 23.714844 30.65625 23.597656 30.59375 23.472656 30.539062 C 23.527344 30.378906 23.414062 30.351562 23.300781 30.324219 C 23.132812 29.921875 22.917969 29.664062 22.53125 29.40625 C 22.535156 29.371094 22.554688 29.320312 22.539062 29.300781 C 22.292969 28.992188 22.046875 28.683594 21.792969 28.382812 C 21.746094 28.328125 21.65625 28.308594 21.585938 28.273438 C 21.613281 28.21875 21.605469 28.167969 21.566406 28.121094 C 21.425781 27.9375 21.289062 27.753906 21.09375 27.625 C 21.101562 27.5 21.007812 27.460938 20.921875 27.414062 C 20.921875 27.398438 20.925781 27.378906 20.921875 27.363281 C 20.917969 27.355469 20.90625 27.347656 20.898438 27.339844 C 20.914062 27.363281 20.925781 27.386719 20.941406 27.40625 Z M 20.769531 26.644531 C 20.726562 26.785156 20.859375 26.804688 20.925781 26.867188 C 21.027344 27.066406 21.136719 27.261719 21.363281 27.347656 C 21.347656 27.476562 21.4375 27.523438 21.535156 27.5625 C 21.511719 27.695312 21.605469 27.738281 21.699219 27.78125 C 21.859375 28.050781 22.003906 28.332031 22.3125 28.476562 C 22.289062 28.613281 22.398438 28.648438 22.488281 28.695312 C 22.453125 28.828125 22.558594 28.863281 22.644531 28.910156 C 22.625 29.042969 22.722656 29.082031 22.8125 29.128906 C 22.929688 29.316406 23.007812 29.542969 23.257812 29.609375 C 23.222656 29.75 23.332031 29.78125 23.425781 29.828125 C 23.402344 29.917969 23.464844 29.976562 23.515625 30.039062 C 23.71875 30.289062 23.921875 30.539062 24.125 30.792969 C 24.566406 31.34375 25.085938 31.832031 25.417969 32.46875 C 25.460938 32.550781 25.558594 32.613281 25.640625 32.667969 C 25.847656 32.796875 26.070312 32.894531 26.316406 32.9375 C 26.535156 32.976562 26.761719 32.992188 26.96875 33.074219 C 27.410156 33.25 27.835938 33.203125 28.355469 33.03125 C 27.6875 32.886719 27.125 32.652344 26.523438 32.582031 C 26.179688 32.542969 25.921875 32.40625 25.691406 32.152344 C 25.023438 31.417969 24.34375 30.699219 23.667969 29.972656 C 23.597656 29.898438 23.515625 29.84375 23.410156 29.832031 C 23.46875 29.675781 23.335938 29.660156 23.242188 29.617188 C 23.1875 29.367188 23.035156 29.210938 22.789062 29.136719 C 22.855469 28.976562 22.738281 28.953125 22.628906 28.917969 C 22.6875 28.765625 22.550781 28.753906 22.46875 28.703125 C 22.488281 28.566406 22.382812 28.53125 22.289062 28.484375 C 22.1875 28.167969 21.992188 27.929688 21.683594 27.789062 C 21.746094 27.628906 21.628906 27.605469 21.519531 27.570312 C 21.570312 27.410156 21.449219 27.386719 21.34375 27.355469 C 21.3125 27.09375 21.128906 26.964844 20.902344 26.875 C 20.957031 26.730469 20.828125 26.707031 20.75 26.652344 C 20.742188 26.617188 20.746094 26.574219 20.722656 26.550781 C 20.707031 26.527344 20.664062 26.527344 20.628906 26.519531 C 20.644531 26.542969 20.648438 26.574219 20.667969 26.59375 C 20.699219 26.617188 20.738281 26.628906 20.769531 26.644531 Z M 25.464844 16.402344 C 25.472656 16.4375 25.480469 16.476562 25.492188 16.507812 C 25.496094 16.515625 25.523438 16.515625 25.539062 16.519531 C 25.507812 16.484375 25.476562 16.445312 25.441406 16.410156 C 25.453125 16.277344 25.363281 16.230469 25.257812 16.195312 C 25.265625 16.160156 25.289062 16.113281 25.273438 16.089844 C 25.113281 15.839844 24.984375 15.5625 24.730469 15.378906 C 24.714844 15.347656 24.707031 15.304688 24.679688 15.28125 C 24.660156 15.261719 24.621094 15.265625 24.589844 15.261719 C 24.605469 15.285156 24.621094 15.320312 24.644531 15.335938 C 24.675781 15.355469 24.714844 15.359375 24.75 15.371094 C 24.734375 15.402344 24.699219 15.445312 24.710938 15.464844 C 24.859375 15.738281 25.023438 16 25.277344 16.1875 C 25.273438 16.316406 25.375 16.355469 25.464844 16.402344 Z M 25.015625 15.105469 C 25 15.226562 25.105469 15.261719 25.175781 15.324219 C 25.171875 15.441406 25.253906 15.488281 25.339844 15.535156 C 25.335938 15.652344 25.417969 15.703125 25.507812 15.753906 C 25.476562 15.898438 25.570312 15.933594 25.683594 15.960938 C 25.671875 15.976562 25.648438 16 25.652344 16.011719 C 25.835938 16.433594 26.101562 16.789062 26.496094 17.042969 C 26.511719 17.234375 26.675781 17.332031 26.757812 17.484375 C 26.859375 17.679688 27.03125 17.75 27.230469 17.792969 C 27.175781 18.0625 27.179688 18.078125 27.378906 18.167969 C 27.4375 18.195312 27.496094 18.210938 27.550781 18.230469 C 27.507812 18.296875 27.460938 18.378906 27.519531 18.449219 C 27.632812 18.589844 27.757812 18.722656 27.878906 18.855469 C 27.929688 18.90625 27.992188 18.890625 28.03125 18.839844 C 28.050781 18.816406 28.054688 18.757812 28.035156 18.734375 C 27.886719 18.550781 27.800781 18.308594 27.539062 18.234375 C 27.535156 18.011719 27.371094 17.90625 27.207031 17.800781 C 27.003906 17.511719 26.792969 17.234375 26.480469 17.050781 C 26.476562 17.015625 26.488281 16.964844 26.46875 16.941406 C 26.203125 16.617188 25.929688 16.292969 25.660156 15.972656 C 25.65625 15.855469 25.574219 15.804688 25.484375 15.761719 C 25.496094 15.636719 25.394531 15.601562 25.316406 15.546875 C 25.339844 15.414062 25.222656 15.390625 25.152344 15.332031 C 25.140625 15.230469 25.058594 15.175781 24.992188 15.113281 C 24.933594 15.039062 24.871094 14.964844 24.808594 14.890625 C 24.746094 14.71875 24.636719 14.582031 24.5 14.457031 C 24.457031 14.402344 24.410156 14.34375 24.363281 14.292969 C 24.355469 14.28125 24.328125 14.28125 24.316406 14.285156 C 24.273438 14.300781 24.273438 14.335938 24.320312 14.359375 C 24.386719 14.394531 24.457031 14.417969 24.523438 14.449219 C 24.480469 14.492188 24.472656 14.539062 24.507812 14.59375 C 24.582031 14.726562 24.683594 14.832031 24.832031 14.882812 C 24.800781 15.03125 24.949219 15.035156 25.015625 15.105469 Z M 19.070312 25.953125 C 19.03125 26.097656 19.148438 26.125 19.238281 26.167969 C 19.195312 26.316406 19.316406 26.339844 19.40625 26.386719 C 19.367188 26.53125 19.492188 26.550781 19.574219 26.601562 C 19.570312 26.71875 19.671875 26.757812 19.742188 26.820312 C 19.761719 26.917969 19.832031 26.976562 19.902344 27.039062 C 19.917969 27.070312 19.929688 27.105469 19.949219 27.136719 C 19.953125 27.144531 19.976562 27.144531 19.988281 27.144531 C 19.953125 27.113281 19.917969 27.078125 19.878906 27.046875 C 19.871094 26.941406 19.777344 26.894531 19.71875 26.828125 C 19.703125 26.726562 19.621094 26.671875 19.550781 26.609375 C 19.554688 26.492188 19.464844 26.445312 19.382812 26.394531 C 19.394531 26.269531 19.300781 26.230469 19.214844 26.179688 C 19.230469 26.054688 19.132812 26.011719 19.050781 25.960938 C 19.0625 25.835938 18.976562 25.785156 18.875 25.746094 C 18.917969 25.605469 18.800781 25.523438 18.738281 25.429688 C 18.5 25.082031 18.226562 24.757812 18.128906 24.324219 C 18.089844 24.140625 17.957031 23.964844 17.792969 23.828125 C 17.640625 23.699219 17.5 23.550781 17.371094 23.394531 C 16.945312 22.875 16.53125 22.351562 16.113281 21.828125 C 15.734375 21.347656 15.402344 20.84375 15.09375 20.316406 C 14.609375 19.496094 14.054688 18.722656 13.445312 17.984375 C 12.875 17.296875 12.3125 16.601562 11.84375 15.839844 C 11.566406 15.390625 11.25 14.96875 10.882812 14.589844 C 9.863281 13.535156 8.933594 12.414062 8.128906 11.191406 C 8.085938 11.125 8.015625 11.078125 7.957031 11.023438 C 7.960938 10.988281 8.019531 10.914062 7.910156 10.957031 C 7.929688 10.976562 7.953125 10.996094 7.972656 11.019531 C 7.910156 11.195312 8.019531 11.328125 8.097656 11.457031 C 8.363281 11.890625 8.636719 12.316406 8.917969 12.738281 C 9.039062 12.925781 9.171875 13.105469 9.308594 13.277344 C 10.007812 14.148438 10.714844 15.011719 11.40625 15.886719 C 12.058594 16.714844 12.675781 17.570312 13.363281 18.371094 C 13.957031 19.0625 14.535156 19.773438 15.027344 20.542969 C 15.179688 20.78125 15.335938 21.019531 15.5 21.25 C 16.289062 22.355469 17.082031 23.457031 17.871094 24.5625 C 18.097656 24.875 18.324219 25.183594 18.554688 25.496094 C 18.640625 25.613281 18.738281 25.710938 18.890625 25.738281 C 18.863281 25.882812 18.976562 25.910156 19.070312 25.953125 Z M 19.574219 25.136719 C 19.574219 25.015625 19.507812 24.957031 19.398438 24.929688 C 19.367188 24.644531 19.28125 24.511719 19.019531 24.335938 C 19.058594 24.175781 18.957031 24.140625 18.832031 24.125 C 18.890625 23.957031 18.820312 23.863281 18.617188 23.785156 C 18.699219 23.941406 18.746094 24.050781 18.851562 24.117188 C 18.851562 24.238281 18.929688 24.292969 19.03125 24.328125 C 19.058594 24.59375 19.203125 24.78125 19.417969 24.921875 C 19.402344 25.054688 19.507812 25.082031 19.59375 25.128906 C 19.59375 25.148438 19.59375 25.164062 19.59375 25.183594 C 19.585938 25.167969 19.578125 25.152344 19.574219 25.136719 Z M 23.730469 13.539062 C 23.738281 13.574219 23.742188 13.613281 23.753906 13.648438 C 23.757812 13.65625 23.785156 13.65625 23.804688 13.65625 C 23.773438 13.621094 23.738281 13.585938 23.707031 13.550781 C 23.703125 13.515625 23.707031 13.472656 23.691406 13.445312 C 23.667969 13.40625 23.628906 13.410156 23.605469 13.445312 C 23.601562 13.453125 23.625 13.476562 23.636719 13.488281 C 23.667969 13.507812 23.699219 13.523438 23.730469 13.539062 Z M 17.652344 22.992188 C 17.710938 23.0625 17.765625 23.132812 17.824219 23.203125 C 17.804688 23.328125 17.898438 23.367188 17.988281 23.410156 C 17.953125 23.476562 17.976562 23.53125 18.023438 23.585938 C 18.085938 23.65625 18.144531 23.726562 18.207031 23.796875 C 18.199219 23.925781 18.28125 23.972656 18.390625 24 C 18.332031 24.070312 18.367188 24.125 18.421875 24.175781 C 18.4375 24.28125 18.488281 24.355469 18.597656 24.386719 C 18.570312 24.566406 18.695312 24.664062 18.804688 24.765625 C 18.828125 24.878906 18.894531 24.941406 19 24.976562 C 18.972656 25.117188 19.089844 25.140625 19.167969 25.195312 C 19.179688 25.300781 19.261719 25.351562 19.332031 25.414062 C 19.351562 25.441406 19.367188 25.464844 19.386719 25.492188 C 19.359375 25.46875 19.335938 25.445312 19.308594 25.421875 C 19.300781 25.316406 19.210938 25.269531 19.144531 25.203125 C 19.148438 25.089844 19.058594 25.039062 18.976562 24.988281 C 18.996094 24.839844 18.898438 24.800781 18.785156 24.777344 C 18.832031 24.589844 18.796875 24.523438 18.582031 24.390625 C 18.625 24.230469 18.5 24.21875 18.398438 24.183594 C 18.46875 24.113281 18.417969 24.058594 18.367188 24.007812 C 18.363281 23.890625 18.292969 23.832031 18.1875 23.804688 C 18.222656 23.648438 18.09375 23.636719 18 23.589844 C 18.070312 23.515625 18.027344 23.464844 17.964844 23.417969 C 17.984375 23.289062 17.882812 23.261719 17.800781 23.210938 C 17.796875 23.101562 17.699219 23.0625 17.636719 22.996094 L 17.632812 22.960938 Z M 22.15625 11.4375 C 22.15625 11.472656 22.144531 11.515625 22.160156 11.539062 C 22.191406 11.589844 22.242188 11.617188 22.300781 11.574219 C 22.304688 11.574219 22.273438 11.511719 22.246094 11.492188 C 22.21875 11.46875 22.179688 11.460938 22.144531 11.445312 C 22.144531 11.414062 22.144531 11.382812 22.144531 11.355469 C 22.125 11.363281 22.105469 11.375 22.085938 11.382812 C 22.109375 11.402344 22.132812 11.421875 22.15625 11.4375 Z M 22.902344 20.296875 C 22.921875 20.28125 22.808594 20.316406 22.894531 20.277344 C 22.90625 20.269531 22.921875 20.261719 22.933594 20.253906 C 22.921875 20.265625 22.910156 20.28125 22.902344 20.296875 Z M 11.738281 4.375 C 11.671875 4.355469 11.613281 4.375 11.5625 4.414062 C 11.390625 4.519531 11.148438 4.5 11.03125 4.703125 C 10.859375 4.695312 10.75 4.796875 10.648438 4.910156 C 10.613281 4.925781 10.574219 4.9375 10.539062 4.960938 C 10.496094 4.988281 10.488281 5.027344 10.527344 5.054688 C 10.535156 5.058594 10.585938 5.027344 10.601562 5.003906 C 10.621094 4.96875 10.628906 4.929688 10.640625 4.890625 C 10.804688 4.929688 10.890625 4.886719 11.023438 4.683594 C 11.273438 4.714844 11.4375 4.597656 11.558594 4.394531 C 11.636719 4.464844 11.6875 4.421875 11.730469 4.351562 C 11.800781 4.378906 11.851562 4.347656 11.898438 4.300781 C 12.078125 4.242188 12.261719 4.183594 12.441406 4.125 C 12.515625 4.097656 12.578125 4.050781 12.59375 3.96875 C 12.671875 4.023438 12.726562 4.007812 12.757812 3.917969 C 12.824219 3.980469 12.882812 3.957031 12.9375 3.902344 C 13.125 3.957031 13.292969 3.878906 13.460938 3.8125 C 13.554688 3.777344 13.644531 3.734375 13.738281 3.707031 C 13.796875 3.6875 13.863281 3.691406 13.886719 3.761719 C 13.910156 3.820312 13.902344 3.890625 13.84375 3.917969 C 13.699219 3.984375 13.546875 4.039062 13.398438 4.097656 C 13.101562 4.214844 12.804688 4.335938 12.503906 4.457031 C 12.375 4.738281 12.046875 4.765625 11.851562 4.960938 C 11.609375 4.941406 11.425781 5.074219 11.25 5.203125 C 10.875 5.472656 10.519531 5.765625 10.148438 6.039062 C 9.648438 6.402344 9.304688 6.890625 8.972656 7.390625 C 8.855469 7.566406 8.8125 7.761719 8.800781 7.960938 C 8.789062 8.148438 8.734375 8.359375 8.910156 8.515625 C 8.808594 8.652344 8.941406 8.800781 8.902344 8.917969 C 8.800781 9.21875 8.964844 9.417969 9.105469 9.640625 C 9.707031 10.578125 10.382812 11.464844 11.023438 12.367188 C 11.15625 12.355469 11.28125 12.320312 11.371094 12.441406 C 11.417969 12.507812 11.480469 12.558594 11.535156 12.617188 C 11.546875 12.675781 11.542969 12.738281 11.570312 12.785156 C 12.277344 13.894531 13.035156 14.96875 13.824219 16.019531 C 13.863281 16.074219 13.890625 16.179688 14.003906 16.132812 C 14.078125 16.015625 13.976562 15.949219 13.925781 15.875 C 13.695312 15.542969 13.457031 15.214844 13.222656 14.886719 C 12.714844 14.175781 12.210938 13.46875 11.707031 12.757812 C 11.660156 12.691406 11.601562 12.640625 11.519531 12.625 C 11.578125 12.511719 11.488281 12.433594 11.433594 12.363281 C 11.105469 11.90625 10.761719 11.464844 10.433594 11.007812 C 10.070312 10.503906 9.707031 10 9.367188 9.480469 C 9.226562 9.265625 9.144531 9.011719 9.03125 8.777344 C 8.992188 8.691406 9 8.578125 8.902344 8.519531 C 8.917969 8.441406 8.945312 8.363281 8.941406 8.289062 C 8.9375 7.953125 9.050781 7.664062 9.230469 7.386719 C 9.527344 6.929688 9.875 6.507812 10.316406 6.1875 C 10.820312 5.820312 11.230469 5.339844 11.792969 5.046875 C 11.820312 5.035156 11.828125 4.980469 11.84375 4.945312 C 12.050781 5.128906 12.0625 5.199219 11.914062 5.304688 C 11.878906 5.328125 11.847656 5.351562 11.8125 5.371094 C 11.324219 5.632812 10.933594 6.019531 10.558594 6.40625 C 10.269531 6.707031 10.03125 7.0625 9.722656 7.347656 C 9.210938 7.816406 9.226562 8.371094 9.417969 8.960938 C 9.476562 9.128906 9.585938 9.28125 9.683594 9.433594 C 9.804688 9.621094 9.953125 9.792969 10.0625 9.988281 C 10.421875 10.625 10.914062 11.167969 11.332031 11.765625 C 11.738281 12.347656 12.191406 12.898438 12.589844 13.484375 C 13.371094 14.621094 14.148438 15.761719 15.027344 16.828125 C 15.121094 16.9375 15.242188 17.039062 15.28125 17.167969 C 15.398438 17.527344 15.664062 17.78125 15.882812 18.070312 C 16.113281 18.378906 16.355469 18.675781 16.605469 18.972656 C 16.660156 19.035156 16.679688 19.171875 16.816406 19.128906 C 16.730469 18.617188 16.492188 18.183594 16.179688 17.769531 C 15.53125 16.914062 14.910156 16.039062 14.28125 15.167969 C 14.222656 15.085938 14.164062 15 14.113281 14.914062 C 13.601562 14.058594 12.976562 13.28125 12.375 12.492188 C 11.859375 11.8125 11.417969 11.085938 10.9375 10.386719 C 10.894531 10.320312 10.871094 10.238281 10.855469 10.160156 C 10.851562 10.140625 10.894531 10.101562 10.921875 10.078125 C 10.933594 10.066406 10.964844 10.058594 10.976562 10.066406 C 11.027344 10.09375 11.089844 10.121094 11.121094 10.167969 C 11.449219 10.65625 11.769531 11.148438 12.097656 11.636719 C 12.230469 11.835938 12.316406 12.074219 12.566406 12.171875 C 12.550781 12.304688 12.652344 12.34375 12.742188 12.390625 C 12.71875 12.519531 12.824219 12.550781 12.90625 12.597656 C 12.90625 12.613281 12.902344 12.632812 12.90625 12.648438 C 12.90625 12.65625 12.917969 12.664062 12.921875 12.671875 C 12.910156 12.652344 12.898438 12.628906 12.886719 12.605469 C 12.902344 12.480469 12.808594 12.441406 12.722656 12.398438 C 12.753906 12.257812 12.660156 12.214844 12.554688 12.179688 C 12.738281 11.984375 12.820312 11.960938 12.929688 12.097656 C 13.027344 12.222656 13.109375 12.363281 13.203125 12.5 C 13.605469 13.082031 13.984375 13.683594 14.414062 14.25 C 15.027344 15.058594 15.671875 15.84375 16.304688 16.636719 C 16.363281 16.707031 16.394531 16.8125 16.507812 16.824219 C 16.527344 16.804688 16.550781 16.796875 16.554688 16.78125 C 16.578125 16.683594 16.601562 16.585938 16.621094 16.488281 C 16.800781 15.4375 17.210938 14.480469 17.765625 13.582031 C 18.390625 12.558594 19.160156 11.660156 20.046875 10.855469 C 20.191406 10.726562 20.390625 10.636719 20.449219 10.433594 C 20.367188 10.203125 20.203125 10.050781 20.058594 9.878906 C 19.734375 9.488281 19.410156 9.097656 19.082031 8.710938 C 18.882812 8.480469 18.683594 8.25 18.480469 8.023438 C 17.910156 7.390625 17.335938 6.757812 16.765625 6.125 C 16.6875 6.039062 16.570312 5.964844 16.632812 5.824219 C 16.671875 5.734375 16.835938 5.785156 16.980469 5.941406 C 17.375 6.378906 17.769531 6.820312 18.160156 7.257812 C 18.253906 7.367188 18.34375 7.476562 18.496094 7.507812 C 18.460938 7.648438 18.582031 7.671875 18.664062 7.726562 C 18.699219 7.871094 18.824219 7.921875 18.933594 7.992188 C 18.925781 8.117188 19.027344 8.15625 19.109375 8.210938 C 19.113281 8.320312 19.199219 8.371094 19.269531 8.429688 C 19.328125 8.503906 19.382812 8.574219 19.441406 8.644531 C 19.5 8.71875 19.554688 8.789062 19.613281 8.859375 C 19.628906 8.894531 19.640625 8.929688 19.660156 8.960938 C 19.664062 8.96875 19.6875 8.964844 19.703125 8.964844 C 19.664062 8.933594 19.625 8.902344 19.589844 8.871094 C 19.617188 8.730469 19.496094 8.707031 19.417969 8.65625 C 19.457031 8.507812 19.332031 8.488281 19.25 8.4375 C 19.304688 8.285156 19.164062 8.277344 19.089844 8.222656 C 19.121094 8.074219 19 8.050781 18.910156 8 C 18.921875 7.808594 18.746094 7.8125 18.640625 7.738281 C 18.6875 7.589844 18.574219 7.558594 18.480469 7.515625 C 18.3125 7.046875 17.960938 6.707031 17.640625 6.351562 C 17.300781 5.972656 16.96875 5.589844 16.652344 5.195312 C 16.453125 4.941406 16.230469 4.703125 16.015625 4.457031 C 15.960938 4.398438 15.890625 4.351562 15.84375 4.285156 C 15.796875 4.226562 15.738281 4.148438 15.8125 4.074219 C 15.882812 4.003906 15.957031 4.019531 16.027344 4.082031 C 16.371094 4.398438 16.667969 4.757812 16.964844 5.121094 C 17.207031 5.417969 17.441406 5.726562 17.707031 6.003906 C 17.988281 6.300781 18.234375 6.617188 18.488281 6.9375 C 18.882812 7.425781 19.300781 7.898438 19.710938 8.375 C 19.734375 8.402344 19.78125 8.40625 19.820312 8.417969 C 19.8125 8.4375 19.792969 8.464844 19.800781 8.476562 C 20.082031 8.9375 20.375 9.382812 20.820312 9.714844 C 20.792969 9.847656 20.886719 9.890625 20.988281 9.929688 C 20.984375 9.945312 20.976562 9.964844 20.976562 9.980469 C 20.976562 9.988281 21.003906 10.007812 21.007812 10.003906 C 21.03125 9.976562 21.019531 9.953125 20.972656 9.933594 C 21.007812 9.789062 20.914062 9.75 20.804688 9.71875 C 20.808594 9.683594 20.835938 9.632812 20.820312 9.613281 C 20.511719 9.191406 20.15625 8.808594 19.804688 8.425781 C 19.847656 8.335938 19.792969 8.269531 19.746094 8.207031 C 19 7.199219 18.328125 6.136719 17.480469 5.199219 C 16.90625 4.566406 16.289062 3.988281 15.582031 3.5 C 15.273438 3.289062 14.957031 3.132812 14.582031 3.378906 C 14.492188 3.4375 14.347656 3.414062 14.230469 3.433594 C 13.769531 3.503906 13.308594 3.5625 12.914062 3.835938 C 12.835938 3.824219 12.78125 3.847656 12.761719 3.929688 C 12.6875 3.882812 12.636719 3.914062 12.597656 3.984375 C 12.308594 3.976562 12.09375 4.125 11.90625 4.324219 C 11.839844 4.308594 11.78125 4.316406 11.738281 4.375 Z M 7.777344 11.730469 C 7.746094 11.796875 7.765625 11.847656 7.8125 11.894531 C 7.847656 11.988281 7.886719 12.074219 7.996094 12.105469 C 7.960938 12.246094 8.089844 12.261719 8.167969 12.320312 C 8.1875 12.347656 8.210938 12.378906 8.230469 12.40625 C 8.203125 12.378906 8.171875 12.355469 8.144531 12.332031 C 8.144531 12.214844 8.066406 12.160156 7.976562 12.113281 C 8.007812 11.957031 7.882812 11.941406 7.789062 11.902344 C 7.847656 11.835938 7.8125 11.785156 7.757812 11.738281 C 7.738281 11.648438 7.769531 11.738281 7.777344 11.730469 Z M 7.097656 10.328125 C 7.082031 10.394531 7.101562 10.449219 7.160156 10.484375 C 7.050781 10.695312 7.117188 10.851562 7.3125 10.972656 C 7.292969 11.109375 7.417969 11.121094 7.492188 11.179688 C 7.488281 11.195312 7.480469 11.214844 7.480469 11.230469 C 7.480469 11.242188 7.492188 11.25 7.496094 11.261719 C 7.488281 11.238281 7.476562 11.210938 7.46875 11.1875 C 7.453125 11.085938 7.414062 11 7.296875 10.976562 C 7.363281 10.914062 7.351562 10.84375 7.3125 10.777344 C 7.257812 10.679688 7.199219 10.585938 7.140625 10.492188 C 7.121094 10.4375 7.105469 10.382812 7.085938 10.328125 C 7.050781 10.3125 7.058594 10.285156 7.085938 10.296875 C 7.160156 10.328125 7.078125 10.25 7.097656 10.328125 Z M 33.757812 30.171875 C 33.945312 30.402344 34.109375 30.609375 34.285156 30.804688 C 34.542969 31.097656 34.722656 31.441406 34.894531 31.785156 C 35.019531 32.035156 35.019531 32.273438 34.808594 32.507812 C 34.554688 32.789062 34.339844 33.105469 34.117188 33.394531 C 34.101562 33.628906 34.316406 33.765625 34.296875 33.984375 C 34.28125 34.203125 34.109375 34.332031 34.003906 34.488281 C 34.007812 34.667969 34.101562 34.800781 34.191406 34.933594 C 34.597656 35.542969 35.003906 36.148438 35.402344 36.761719 C 35.511719 36.929688 35.59375 37.117188 35.6875 37.296875 C 35.734375 37.390625 35.726562 37.496094 35.699219 37.59375 C 35.636719 37.8125 35.433594 37.914062 35.226562 37.828125 C 34.972656 37.726562 34.792969 37.53125 34.609375 37.339844 C 34.121094 36.824219 33.640625 36.300781 33.15625 35.78125 C 33.046875 35.664062 32.949219 35.527344 32.765625 35.460938 C 32.574219 35.429688 32.441406 35.644531 32.21875 35.625 C 31.984375 35.605469 31.894531 35.394531 31.710938 35.3125 C 31.558594 35.269531 31.441406 35.367188 31.3125 35.421875 C 31.054688 35.535156 30.789062 35.640625 30.539062 35.769531 C 30.328125 35.875 30.144531 35.832031 29.964844 35.714844 C 29.617188 35.492188 29.34375 35.195312 29.09375 34.875 C 28.921875 34.648438 28.753906 34.417969 28.570312 34.175781 C 28.105469 34.199219 27.640625 34.226562 27.179688 34.253906 C 26.894531 34.269531 26.609375 34.277344 26.328125 34.308594 C 25.890625 34.355469 25.484375 34.21875 25.078125 34.097656 C 24.910156 34.046875 24.796875 33.929688 24.691406 33.808594 C 24.324219 33.402344 23.964844 32.992188 23.558594 32.617188 C 23.46875 32.539062 23.402344 32.433594 23.335938 32.332031 C 23.160156 32.058594 22.960938 31.800781 22.730469 31.566406 C 22.675781 31.511719 22.617188 31.453125 22.566406 31.386719 C 21.359375 29.835938 20.082031 28.332031 18.953125 26.71875 C 18.277344 25.753906 17.597656 24.789062 16.90625 23.839844 C 16.523438 23.316406 16.101562 22.816406 15.703125 22.304688 C 15.089844 21.523438 14.484375 20.734375 13.875 19.949219 C 13.773438 19.820312 13.679688 19.679688 13.554688 19.582031 C 13.261719 19.355469 13.066406 19.039062 12.816406 18.777344 C 12.285156 18.214844 11.894531 17.539062 11.371094 16.972656 C 11.34375 16.945312 11.3125 16.914062 11.292969 16.882812 C 10.683594 15.964844 9.917969 15.175781 9.191406 14.355469 C 8.59375 13.6875 8.078125 12.960938 7.566406 12.226562 C 7.195312 11.691406 6.921875 11.101562 6.660156 10.507812 C 6.4375 10 6.457031 9.476562 6.644531 8.96875 C 7.269531 7.285156 8.285156 5.898438 9.746094 4.820312 C 10.484375 4.273438 11.300781 3.871094 12.128906 3.511719 C 12.832031 3.210938 13.59375 3.03125 14.367188 2.96875 C 14.992188 2.921875 15.550781 3.058594 16.066406 3.476562 C 16.699219 3.992188 17.289062 4.539062 17.824219 5.15625 C 18.414062 5.832031 18.941406 6.546875 19.4375 7.289062 C 19.742188 7.746094 20.054688 8.199219 20.390625 8.628906 C 20.714844 9.042969 21.066406 9.4375 21.390625 9.851562 C 21.753906 10.316406 22.125 10.769531 22.472656 11.246094 C 22.699219 11.558594 22.96875 11.835938 23.117188 12.199219 C 23.140625 12.253906 23.179688 12.304688 23.21875 12.351562 C 23.65625 12.910156 24.097656 13.464844 24.539062 14.019531 C 24.957031 14.546875 25.390625 15.054688 25.792969 15.589844 C 26.253906 16.210938 26.742188 16.808594 27.265625 17.375 C 28.128906 18.320312 28.953125 19.296875 29.773438 20.28125 C 30.292969 20.902344 30.789062 21.546875 31.289062 22.1875 C 31.785156 22.828125 32.242188 23.5 32.761719 24.121094 C 33.246094 24.703125 33.613281 25.359375 34.074219 25.945312 C 34.585938 26.589844 34.652344 27.265625 34.441406 27.996094 C 34.238281 28.714844 33.996094 29.417969 33.757812 30.171875 " fill-opacity="1" fill-rule="nonzero"/></g></g></g></g></g><g clip-path="url(#e98bd522bf)"><g clip-path="url(#02c735c2c8)"><g clip-path="url(#4d4b619845)"><g clip-path="url(#b46a1d5abf)"><path fill="#231f20" d="M 33.328125 29.449219 C 33.253906 29.433594 33.207031 29.386719 33.207031 29.328125 C 33.214844 29.230469 33.234375 29.128906 33.261719 29.035156 C 33.402344 28.550781 33.546875 28.070312 33.6875 27.585938 C 33.699219 27.550781 33.722656 27.511719 33.75 27.484375 C 33.777344 27.464844 33.824219 27.445312 33.855469 27.453125 C 33.886719 27.460938 33.921875 27.5 33.925781 27.53125 C 33.96875 27.777344 33.859375 28.007812 33.808594 28.238281 C 33.726562 28.609375 33.570312 28.964844 33.441406 29.324219 C 33.421875 29.375 33.363281 29.410156 33.328125 29.449219 " fill-opacity="1" fill-rule="nonzero"/></g></g></g></g><g clip-path="url(#b2ffca3ab7)"><g clip-path="url(#a74419acc2)"><g clip-path="url(#f21dedff97)"><g clip-path="url(#bddfa1579d)"><path fill="#231f20" d="M 31.996094 28.726562 C 32.011719 28.71875 32.027344 28.699219 32.042969 28.699219 C 32.078125 28.695312 32.117188 28.699219 32.15625 28.710938 C 32.167969 28.714844 32.183594 28.742188 32.1875 28.757812 C 32.3125 29.148438 32.316406 29.550781 32.292969 29.949219 C 32.289062 29.976562 32.238281 30.011719 32.207031 30.015625 C 32.175781 30.023438 32.121094 30 32.109375 29.972656 C 32.078125 29.902344 32.046875 29.824219 32.039062 29.746094 C 32.011719 29.445312 31.992188 29.144531 31.972656 28.839844 C 31.96875 28.804688 31.984375 28.765625 31.996094 28.726562 " fill-opacity="1" fill-rule="nonzero"/></g></g></g></g><g clip-path="url(#58c37ac76f)"><g clip-path="url(#e00ad958a1)"><g clip-path="url(#d06a791c38)"><g clip-path="url(#888130e264)"><path fill="#231f20" d="M 31.839844 30.039062 C 31.695312 30.105469 31.617188 30.050781 31.589844 29.9375 C 31.515625 29.605469 31.449219 29.273438 31.378906 28.9375 C 31.488281 28.851562 31.566406 28.914062 31.617188 29.003906 C 31.804688 29.328125 31.847656 29.683594 31.839844 30.039062 " fill-opacity="1" fill-rule="nonzero"/></g></g></g></g><g clip-path="url(#a1af7d02a0)"><g clip-path="url(#fec867b052)"><g clip-path="url(#cc8a485ee1)"><g clip-path="url(#8ad26cfd8e)"><path fill="#231f20" d="M 29.972656 30.851562 C 29.746094 30.714844 29.53125 30.539062 29.359375 30.3125 C 29.34375 30.292969 29.359375 30.230469 29.378906 30.207031 C 29.398438 30.179688 29.457031 30.152344 29.476562 30.164062 C 29.566406 30.214844 29.640625 30.277344 29.726562 30.332031 C 29.878906 30.425781 29.976562 30.589844 30.175781 30.613281 C 30.25 30.625 30.289062 30.730469 30.25 30.8125 C 30.207031 30.894531 30.128906 30.90625 30.046875 30.878906 C 30.027344 30.871094 30.007812 30.863281 29.972656 30.851562 " fill-opacity="1" fill-rule="nonzero"/></g></g></g></g><g clip-path="url(#ef815412be)"><g clip-path="url(#0b8cd4124f)"><g clip-path="url(#dfea615ef2)"><g clip-path="url(#416ad88e8b)"><path fill="#231f20" d="M 33.339844 28.097656 C 33.351562 28.082031 33.304688 28.148438 33.257812 28.210938 C 33.230469 28.25 33.191406 28.253906 33.15625 28.21875 C 33.132812 28.191406 33.105469 28.160156 33.101562 28.125 C 33.09375 28.089844 33.109375 28.050781 33.121094 28.011719 C 33.171875 27.820312 33.226562 27.628906 33.28125 27.4375 C 33.304688 27.363281 33.339844 27.277344 33.4375 27.304688 C 33.527344 27.328125 33.523438 27.421875 33.53125 27.503906 C 33.539062 27.691406 33.476562 27.855469 33.339844 28.097656 " fill-opacity="1" fill-rule="nonzero"/></g></g></g></g><g clip-path="url(#661e55a550)"><g clip-path="url(#880367eb23)"><g clip-path="url(#fe82fe09ea)"><g clip-path="url(#c7a8d5b65d)"><path fill="#231f20" d="M 30.742188 29.339844 C 30.84375 29.277344 30.933594 29.261719 30.96875 29.355469 C 31.042969 29.5625 31.101562 29.777344 31.164062 29.988281 C 31.179688 30.050781 31.164062 30.109375 31.097656 30.136719 C 31.03125 30.164062 30.976562 30.128906 30.949219 30.074219 C 30.832031 29.839844 30.769531 29.585938 30.742188 29.339844 " fill-opacity="1" fill-rule="nonzero"/></g></g></g></g><g clip-path="url(#d16f4d4a6e)"><g clip-path="url(#2154cae3a9)"><g clip-path="url(#e7d9e1392a)"><g clip-path="url(#2935dbb1f5)"><path fill="#231f20" d="M 29.21875 30.601562 C 29.371094 30.691406 29.539062 30.765625 29.617188 30.941406 C 29.632812 30.972656 29.628906 31.019531 29.613281 31.046875 C 29.585938 31.109375 29.515625 31.121094 29.46875 31.085938 C 29.289062 30.964844 29.113281 30.835938 28.941406 30.703125 C 28.917969 30.6875 28.914062 30.632812 28.917969 30.597656 C 28.929688 30.515625 29.003906 30.53125 29.054688 30.535156 C 29.113281 30.542969 29.164062 30.578125 29.21875 30.601562 " fill-opacity="1" fill-rule="nonzero"/></g></g></g></g></g></g></g></svg>