<svg xmlns="http://www.w3.org/2000/svg" xmlns:xlink="http://www.w3.org/1999/xlink" width="200" zoomAndPan="magnify" viewBox="0 0 150 60" height="80" preserveAspectRatio="xMidYMid meet" version="1.0"><defs><filter x="0%" y="0%" width="100%" height="100%" id="a4936446ec"><feColorMatrix values="0 0 0 0 1 0 0 0 0 1 0 0 0 0 1 0 0 0 1 0" color-interpolation-filters="sRGB"/></filter><mask id="bbe2d47eba"><g filter="url(#a4936446ec)"><rect x="-15" width="180" fill="#000000" y="-6" height="72" fill-opacity="0.2"/></g></mask><clipPath id="0bef898ab2"><path d="M 2 5 L 42 5 L 42 51 L 2 51 Z M 2 5 " clip-rule="nonzero"/></clipPath><clipPath id="3391ac19c2"><path d="M 30.523438 57.414062 L 0.726562 49.816406 L 13.328125 0.398438 L 43.125 7.996094 Z M 30.523438 57.414062 " clip-rule="nonzero"/></clipPath><clipPath id="6c62a560d6"><path d="M 30.523438 57.414062 L 0.726562 49.816406 L 13.328125 0.398438 L 43.125 7.996094 Z M 30.523438 57.414062 " clip-rule="nonzero"/></clipPath><clipPath id="d978a44dcc"><path d="M 30.523438 57.414062 L 0.726562 49.816406 L 13.328125 0.398438 L 43.125 7.996094 Z M 30.523438 57.414062 " clip-rule="nonzero"/></clipPath><clipPath id="d4cba7d523"><path d="M 30.53125 57.386719 L 0.734375 49.789062 L 13.324219 0.421875 L 43.117188 8.019531 Z M 30.53125 57.386719 " clip-rule="nonzero"/></clipPath><clipPath id="a63409f66d"><path d="M 12 44 L 16 44 L 16 46 L 12 46 Z M 12 44 " clip-rule="nonzero"/></clipPath><clipPath id="0c75be9dea"><path d="M 30.523438 57.414062 L 0.726562 49.816406 L 13.328125 0.398438 L 43.125 7.996094 Z M 30.523438 57.414062 " clip-rule="nonzero"/></clipPath><clipPath id="6d25c84952"><path d="M 30.523438 57.414062 L 0.726562 49.816406 L 13.328125 0.398438 L 43.125 7.996094 Z M 30.523438 57.414062 " clip-rule="nonzero"/></clipPath><clipPath id="7e8fd807a9"><path d="M 30.523438 57.414062 L 0.726562 49.816406 L 13.328125 0.398438 L 43.125 7.996094 Z M 30.523438 57.414062 " clip-rule="nonzero"/></clipPath><clipPath id="5e553ab7a5"><path d="M 11 43 L 14 43 L 14 44 L 11 44 Z M 11 43 " clip-rule="nonzero"/></clipPath><clipPath id="590e286711"><path d="M 30.523438 57.414062 L 0.726562 49.816406 L 13.328125 0.398438 L 43.125 7.996094 Z M 30.523438 57.414062 " clip-rule="nonzero"/></clipPath><clipPath id="af59239f46"><path d="M 30.523438 57.414062 L 0.726562 49.816406 L 13.328125 0.398438 L 43.125 7.996094 Z M 30.523438 57.414062 " clip-rule="nonzero"/></clipPath><clipPath id="4c37a4bf8e"><path d="M 30.523438 57.414062 L 0.726562 49.816406 L 13.328125 0.398438 L 43.125 7.996094 Z M 30.523438 57.414062 " clip-rule="nonzero"/></clipPath><clipPath id="9eade282d2"><path d="M 11 42 L 13 42 L 13 44 L 11 44 Z M 11 42 " clip-rule="nonzero"/></clipPath><clipPath id="bcb7625749"><path d="M 30.523438 57.414062 L 0.726562 49.816406 L 13.328125 0.398438 L 43.125 7.996094 Z M 30.523438 57.414062 " clip-rule="nonzero"/></clipPath><clipPath id="b107f045a1"><path d="M 30.523438 57.414062 L 0.726562 49.816406 L 13.328125 0.398438 L 43.125 7.996094 Z M 30.523438 57.414062 " clip-rule="nonzero"/></clipPath><clipPath id="18423e984e"><path d="M 30.523438 57.414062 L 0.726562 49.816406 L 13.328125 0.398438 L 43.125 7.996094 Z M 30.523438 57.414062 " clip-rule="nonzero"/></clipPath><clipPath id="a44245cb65"><path d="M 9 40 L 11 40 L 11 42 L 9 42 Z M 9 40 " clip-rule="nonzero"/></clipPath><clipPath id="19ae421799"><path d="M 30.523438 57.414062 L 0.726562 49.816406 L 13.328125 0.398438 L 43.125 7.996094 Z M 30.523438 57.414062 " clip-rule="nonzero"/></clipPath><clipPath id="0c51ca2ba3"><path d="M 30.523438 57.414062 L 0.726562 49.816406 L 13.328125 0.398438 L 43.125 7.996094 Z M 30.523438 57.414062 " clip-rule="nonzero"/></clipPath><clipPath id="db1df7409a"><path d="M 30.523438 57.414062 L 0.726562 49.816406 L 13.328125 0.398438 L 43.125 7.996094 Z M 30.523438 57.414062 " clip-rule="nonzero"/></clipPath><clipPath id="259687d2cc"><path d="M 14 44 L 16 44 L 16 45 L 14 45 Z M 14 44 " clip-rule="nonzero"/></clipPath><clipPath id="6bcffdc704"><path d="M 30.523438 57.414062 L 0.726562 49.816406 L 13.328125 0.398438 L 43.125 7.996094 Z M 30.523438 57.414062 " clip-rule="nonzero"/></clipPath><clipPath id="b057917b9e"><path d="M 30.523438 57.414062 L 0.726562 49.816406 L 13.328125 0.398438 L 43.125 7.996094 Z M 30.523438 57.414062 " clip-rule="nonzero"/></clipPath><clipPath id="a66310991c"><path d="M 30.523438 57.414062 L 0.726562 49.816406 L 13.328125 0.398438 L 43.125 7.996094 Z M 30.523438 57.414062 " clip-rule="nonzero"/></clipPath><clipPath id="05f7a729a0"><path d="M 11 41 L 13 41 L 13 43 L 11 43 Z M 11 41 " clip-rule="nonzero"/></clipPath><clipPath id="9a8749359a"><path d="M 30.523438 57.414062 L 0.726562 49.816406 L 13.328125 0.398438 L 43.125 7.996094 Z M 30.523438 57.414062 " clip-rule="nonzero"/></clipPath><clipPath id="c307aaf584"><path d="M 30.523438 57.414062 L 0.726562 49.816406 L 13.328125 0.398438 L 43.125 7.996094 Z M 30.523438 57.414062 " clip-rule="nonzero"/></clipPath><clipPath id="2bb2e1f49b"><path d="M 30.523438 57.414062 L 0.726562 49.816406 L 13.328125 0.398438 L 43.125 7.996094 Z M 30.523438 57.414062 " clip-rule="nonzero"/></clipPath><clipPath id="ddd6df0d4e"><path d="M 9 39 L 11 39 L 11 41 L 9 41 Z M 9 39 " clip-rule="nonzero"/></clipPath><clipPath id="348a21ad51"><path d="M 30.523438 57.414062 L 0.726562 49.816406 L 13.328125 0.398438 L 43.125 7.996094 Z M 30.523438 57.414062 " clip-rule="nonzero"/></clipPath><clipPath id="2ead363316"><path d="M 30.523438 57.414062 L 0.726562 49.816406 L 13.328125 0.398438 L 43.125 7.996094 Z M 30.523438 57.414062 " clip-rule="nonzero"/></clipPath><clipPath id="bac9c6946d"><path d="M 30.523438 57.414062 L 0.726562 49.816406 L 13.328125 0.398438 L 43.125 7.996094 Z M 30.523438 57.414062 " clip-rule="nonzero"/></clipPath><clipPath id="02e6ecb62b"><rect x="0" width="44" y="0" height="58"/></clipPath></defs><rect x="-15" width="180" fill="#ffffff" y="-6" height="72" fill-opacity="1"/><rect x="-15" width="180" fill="#ffffff" y="-6" height="72" fill-opacity="1"/><g mask="url(#bbe2d47eba)"><g transform="matrix(1, 0, 0, 1, 53, 1)"><g clip-path="url(#02e6ecb62b)"><g clip-path="url(#0bef898ab2)"><g clip-path="url(#3391ac19c2)"><g clip-path="url(#6c62a560d6)"><g clip-path="url(#d978a44dcc)"><g clip-path="url(#d4cba7d523)"><path fill="#231f20" d="M 29.828125 7.632812 L 29.855469 7.664062 L 29.871094 7.621094 Z M 28.46875 28.136719 C 28.476562 28.15625 28.488281 28.1875 28.496094 28.1875 C 28.5625 28.183594 28.574219 28.15625 28.523438 28.113281 C 28.515625 28.109375 28.488281 28.128906 28.46875 28.136719 Z M 6.667969 40.425781 C 6.675781 40.46875 6.683594 40.511719 6.6875 40.554688 C 6.710938 40.546875 6.746094 40.535156 6.746094 40.523438 C 6.75 40.484375 6.738281 40.441406 6.734375 40.402344 C 6.714844 40.410156 6.691406 40.417969 6.667969 40.425781 Z M 5.484375 45.621094 C 5.484375 45.644531 5.484375 45.671875 5.484375 45.699219 C 5.503906 45.679688 5.53125 45.667969 5.539062 45.644531 C 5.546875 45.625 5.539062 45.597656 5.535156 45.570312 C 5.519531 45.585938 5.5 45.605469 5.484375 45.621094 Z M 35.078125 7.054688 C 35.039062 7.03125 35.003906 7.003906 34.964844 6.984375 C 34.953125 6.976562 34.925781 7 34.902344 7.011719 C 34.917969 7.03125 34.929688 7.0625 34.945312 7.0625 C 34.988281 7.070312 35.03125 7.058594 35.078125 7.054688 Z M 24.574219 25.738281 C 24.585938 25.78125 24.585938 25.851562 24.613281 25.871094 C 24.714844 25.933594 24.816406 25.90625 24.902344 25.832031 C 24.964844 25.773438 24.933594 25.664062 24.851562 25.644531 C 24.742188 25.625 24.640625 25.625 24.574219 25.738281 Z M 8.265625 31.703125 C 8.390625 31.757812 8.519531 31.769531 8.636719 31.707031 C 8.710938 31.664062 8.742188 31.574219 8.6875 31.507812 C 8.648438 31.457031 8.542969 31.398438 8.5 31.414062 C 8.382812 31.460938 8.285156 31.554688 8.265625 31.703125 Z M 33.941406 24.070312 C 33.636719 24.1875 33.507812 24.34375 33.417969 24.53125 C 33.402344 24.566406 33.425781 24.648438 33.453125 24.667969 C 33.484375 24.691406 33.5625 24.679688 33.597656 24.652344 C 33.738281 24.539062 33.824219 24.378906 33.941406 24.070312 Z M 34.714844 6.808594 C 34.335938 6.484375 33.933594 6.382812 33.503906 6.34375 C 33.675781 6.445312 33.867188 6.511719 34.046875 6.585938 C 34.238281 6.667969 34.382812 6.859375 34.714844 6.808594 Z M 28.988281 25.199219 C 29.3125 25.164062 29.574219 24.941406 29.976562 24.878906 C 29.582031 24.644531 29.289062 24.730469 29.011719 24.882812 C 28.914062 24.9375 28.933594 25.0625 28.988281 25.199219 Z M 6.144531 45.671875 C 5.714844 45.96875 5.675781 46.164062 6.007812 46.4375 C 6.292969 46.671875 6.585938 46.898438 6.890625 47.105469 C 7.03125 47.203125 7.195312 47.171875 7.320312 47.039062 C 7.410156 46.941406 7.5 46.84375 7.453125 46.695312 C 7.078125 46.277344 6.59375 45.996094 6.144531 45.671875 Z M 19.371094 24.996094 C 20.53125 23.558594 21.527344 22.164062 22.679688 20.894531 C 22.703125 20.867188 22.679688 20.796875 22.679688 20.746094 C 22.410156 20.726562 22.246094 20.890625 22.09375 21.070312 C 21.359375 21.9375 20.621094 22.804688 19.890625 23.675781 C 19.769531 23.816406 19.664062 23.96875 19.558594 24.121094 C 19.40625 24.347656 19.328125 24.59375 19.371094 24.996094 Z M 5.5625 46.585938 C 5.273438 46.746094 5.171875 47.007812 5 47.203125 C 4.484375 47.808594 3.984375 48.425781 3.484375 49.046875 C 3.183594 49.425781 3.164062 49.488281 3.085938 49.90625 C 3.433594 49.792969 3.652344 49.519531 3.890625 49.273438 C 4.59375 48.550781 5.292969 47.824219 5.992188 47.101562 C 6.039062 47.050781 6.054688 47.015625 6.03125 46.976562 C 5.921875 46.796875 5.765625 46.699219 5.5625 46.585938 Z M 28.894531 24.351562 C 29.765625 24.101562 30.625 24.265625 31.238281 24.804688 C 31.382812 24.933594 31.539062 25.019531 31.71875 25.070312 C 31.835938 25.105469 31.921875 25.054688 31.996094 24.96875 C 32.089844 24.855469 32.027344 24.746094 31.949219 24.691406 C 31.621094 24.464844 31.285156 24.253906 30.941406 24.050781 C 30.742188 23.929688 30.507812 23.867188 30.367188 23.648438 C 30.445312 23.550781 30.507812 23.472656 30.574219 23.390625 C 30.308594 23.117188 29.984375 22.964844 29.617188 22.898438 C 29.546875 22.984375 29.480469 23.066406 29.40625 23.160156 C 28.753906 23.117188 28.25 22.574219 27.546875 22.53125 C 27.992188 23.171875 28.8125 23.449219 28.894531 24.351562 Z M 25.683594 25.183594 C 25.769531 25.390625 25.726562 25.597656 25.898438 25.726562 C 26.039062 25.832031 26.203125 25.945312 26.199219 26.164062 C 26.128906 26.324219 25.925781 26.410156 25.925781 26.621094 C 26.023438 26.738281 26.15625 26.746094 26.289062 26.753906 C 26.808594 26.773438 27.285156 26.644531 27.730469 26.371094 C 28.351562 25.992188 28.699219 25.152344 28.507812 24.453125 C 28.40625 24.082031 28.222656 23.804688 27.839844 23.621094 C 27.378906 23.394531 26.90625 23.222656 26.40625 23.160156 C 25.820312 23.085938 25.277344 23.308594 24.898438 23.730469 C 24.628906 24.035156 24.503906 24.472656 24.328125 24.859375 C 24.265625 24.996094 24.414062 25.164062 24.585938 25.167969 C 24.925781 25.175781 25.269531 25.175781 25.683594 25.183594 Z M 25.582031 22.222656 C 25.476562 22.101562 25.363281 22.132812 25.261719 22.121094 C 25.128906 22.101562 24.992188 22.105469 24.871094 22.066406 C 24.808594 22.046875 24.742188 21.949219 24.738281 21.886719 C 24.734375 21.832031 24.800781 21.738281 24.859375 21.714844 C 24.980469 21.671875 25.117188 21.644531 25.246094 21.640625 C 26.5625 21.617188 27.851562 21.828125 29.097656 22.238281 C 29.601562 22.402344 30.085938 22.644531 30.546875 22.902344 C 31.105469 23.210938 31.632812 23.574219 32.175781 23.917969 C 32.308594 24.003906 32.4375 24.101562 32.664062 24.058594 C 32.835938 23.925781 33.007812 23.738281 33.121094 23.46875 C 31.085938 21.894531 28.863281 20.804688 26.328125 20.417969 C 25.511719 20.292969 24.683594 20.292969 23.859375 20.414062 C 23.632812 20.445312 23.460938 20.523438 23.320312 20.707031 C 22.878906 21.269531 22.316406 21.734375 21.953125 22.363281 C 21.902344 22.453125 21.824219 22.535156 21.753906 22.609375 C 20.890625 23.523438 20.210938 24.574219 19.464844 25.570312 C 19.308594 25.777344 19.28125 25.984375 19.300781 26.238281 C 19.367188 27.097656 19.574219 27.917969 19.875 28.71875 C 20.679688 30.851562 21.988281 32.644531 23.632812 34.207031 C 23.742188 34.3125 23.832031 34.460938 24.085938 34.457031 C 24.320312 34.179688 24.613281 33.890625 24.796875 33.453125 C 24.222656 33.363281 23.804688 33.117188 23.578125 32.609375 C 23.542969 32.527344 23.414062 32.480469 23.328125 32.425781 C 23.148438 32.316406 22.929688 32.265625 22.800781 32.070312 C 22.726562 31.746094 22.773438 31.355469 22.453125 31.136719 C 22.195312 30.957031 22.03125 30.746094 21.972656 30.441406 C 21.960938 30.371094 21.902344 30.292969 21.839844 30.246094 C 21.347656 29.878906 21.082031 29.378906 20.933594 28.792969 C 20.894531 28.644531 20.765625 28.519531 20.699219 28.375 C 20.660156 28.289062 20.601562 28.136719 20.640625 28.089844 C 20.8125 27.894531 20.691406 27.75 20.605469 27.585938 C 20.546875 27.46875 20.492188 27.347656 20.453125 27.222656 C 20.445312 27.1875 20.484375 27.121094 20.519531 27.097656 C 20.558594 27.074219 20.632812 27.0625 20.664062 27.085938 C 20.730469 27.128906 20.785156 27.1875 20.828125 27.253906 C 21.035156 27.5625 21.234375 27.878906 21.441406 28.1875 C 21.792969 28.722656 22.175781 29.230469 22.414062 29.835938 C 22.53125 30.128906 22.757812 30.371094 22.976562 30.605469 C 23.375 31.035156 23.757812 31.480469 24.152344 31.914062 C 24.382812 32.167969 24.625 32.417969 24.867188 32.664062 C 24.976562 32.777344 25.085938 32.902344 25.328125 32.867188 C 25.402344 32.785156 25.515625 32.671875 25.613281 32.550781 C 26.535156 31.414062 27.40625 30.242188 28.398438 29.164062 C 28.46875 29.085938 28.539062 28.996094 28.574219 28.902344 C 28.59375 28.84375 28.566406 28.746094 28.523438 28.691406 C 28.460938 28.605469 28.359375 28.535156 28.25 28.582031 C 28.132812 28.636719 28.03125 28.730469 27.917969 28.800781 C 27.410156 29.121094 26.902344 29.265625 26.378906 28.824219 C 26.300781 28.757812 26.203125 28.703125 26.105469 28.664062 C 25.871094 28.574219 25.652344 28.566406 25.429688 28.738281 C 25.117188 28.980469 24.777344 29.195312 24.449219 29.421875 C 24.320312 29.511719 24.191406 29.605469 24.054688 29.6875 C 23.960938 29.746094 23.832031 29.765625 23.773438 29.660156 C 23.730469 29.578125 23.710938 29.441406 23.75 29.359375 C 23.828125 29.195312 23.941406 29.046875 24.058594 28.898438 C 24.234375 28.675781 24.304688 28.4375 24.21875 28.15625 C 24.183594 28.054688 24.171875 27.949219 24.152344 27.835938 C 24.003906 27.726562 23.847656 27.625 23.707031 27.503906 C 23.488281 27.316406 23.46875 27.09375 23.667969 26.878906 C 23.882812 26.648438 24.121094 26.4375 24.359375 26.207031 C 24.285156 26.078125 24.214844 25.964844 24.148438 25.847656 C 24.007812 25.59375 23.867188 25.335938 23.722656 25.082031 C 23.492188 24.667969 23.488281 24.277344 23.785156 23.890625 C 23.914062 23.722656 24.019531 23.535156 24.117188 23.347656 C 24.335938 22.929688 24.679688 22.648438 25.085938 22.433594 C 25.242188 22.351562 25.410156 22.292969 25.582031 22.222656 Z M 27.699219 28.34375 C 27.515625 28.28125 27.257812 28.449219 27.144531 28.171875 C 27.1875 27.96875 27.484375 27.996094 27.496094 27.765625 C 27.429688 27.542969 27.390625 27.304688 27.246094 27.109375 C 27.191406 27.09375 27.136719 27.058594 27.089844 27.066406 C 26.5 27.160156 25.921875 27.136719 25.363281 26.902344 C 25.207031 26.835938 25.054688 26.835938 24.90625 26.925781 C 24.738281 27.03125 24.570312 27.039062 24.375 26.957031 C 24.144531 26.859375 24.132812 26.882812 23.945312 27.183594 C 24 27.355469 24.183594 27.386719 24.289062 27.5 C 24.402344 27.617188 24.53125 27.714844 24.550781 27.890625 C 24.570312 28.074219 24.574219 28.265625 24.632812 28.441406 C 24.683594 28.578125 24.453125 28.71875 24.640625 28.839844 C 24.847656 28.792969 24.980469 28.65625 25.113281 28.53125 C 25.558594 28.128906 26.011719 28.128906 26.484375 28.46875 C 26.503906 28.484375 26.523438 28.507812 26.546875 28.519531 C 27.0625 28.835938 27.183594 28.824219 27.742188 28.417969 C 27.804688 28.410156 27.898438 28.398438 27.851562 28.316406 C 27.8125 28.242188 27.742188 28.285156 27.699219 28.34375 Z M 28.121094 26.65625 C 28.277344 26.6875 28.425781 26.730469 28.539062 26.859375 C 28.609375 26.9375 28.707031 27 28.835938 26.886719 C 28.828125 26.800781 28.8125 26.703125 28.8125 26.601562 C 28.8125 26.515625 28.875 26.453125 28.957031 26.445312 C 28.996094 26.441406 29.050781 26.488281 29.085938 26.523438 C 29.191406 26.621094 29.222656 26.746094 29.207031 26.882812 C 29.191406 27.039062 29.089844 27.1875 29.191406 27.371094 C 29.320312 27.457031 29.46875 27.558594 29.644531 27.679688 C 30.292969 27.105469 30.734375 26.382812 31.261719 25.75 C 31.019531 25.367188 30.679688 25.238281 30.296875 25.210938 C 29.941406 25.1875 29.5625 25.238281 29.332031 25.496094 C 29.046875 25.808594 28.679688 26.007812 28.390625 26.296875 C 28.28125 26.40625 28.132812 26.496094 28.136719 26.679688 C 28.046875 26.683594 28 26.738281 27.976562 26.816406 C 27.914062 27.058594 27.988281 27.28125 28.078125 27.5 C 28.121094 27.601562 28.175781 27.6875 28.304688 27.597656 C 28.296875 27.386719 28.199219 27.207031 28.09375 27.027344 C 28.019531 26.902344 28.054688 26.777344 28.121094 26.65625 Z M 5.335938 38.238281 C 5.347656 38.261719 5.351562 38.285156 5.367188 38.304688 C 5.371094 38.316406 5.390625 38.316406 5.402344 38.320312 C 5.371094 38.300781 5.339844 38.277344 5.308594 38.257812 C 5.441406 38.03125 5.382812 37.796875 5.335938 37.566406 C 5.171875 36.761719 5.339844 36 5.632812 35.253906 C 5.71875 35.035156 5.78125 34.808594 5.855469 34.585938 C 5.875 34.574219 5.890625 34.566406 5.90625 34.554688 C 5.894531 34.574219 5.882812 34.589844 5.871094 34.609375 C 5.457031 34.746094 5.304688 35.128906 5.078125 35.445312 C 4.984375 35.578125 4.964844 35.738281 4.96875 35.902344 C 4.988281 36.695312 5 37.492188 5.335938 38.238281 Z M 23.078125 20.074219 C 23.1875 20.132812 23.285156 20.097656 23.359375 20.015625 C 24.035156 19.308594 24.648438 18.550781 25.214844 17.757812 C 25.226562 17.742188 25.203125 17.707031 25.191406 17.664062 C 25.046875 17.785156 24.894531 17.890625 24.773438 18.023438 C 24.226562 18.632812 23.683594 19.246094 23.148438 19.863281 C 23.101562 19.914062 23.105469 20.007812 23.082031 20.082031 C 23.011719 20.066406 22.941406 20.046875 23.003906 20.160156 C 23.03125 20.132812 23.054688 20.101562 23.078125 20.074219 Z M 20.871094 21.894531 C 20.453125 22.070312 20.339844 22.199219 20.175781 22.679688 C 20.128906 22.699219 20.070312 22.703125 20.042969 22.738281 C 20.019531 22.765625 20.035156 22.824219 20.03125 22.871094 C 20.0625 22.851562 20.109375 22.839844 20.125 22.8125 C 20.148438 22.769531 20.148438 22.714844 20.160156 22.664062 C 20.25 22.683594 20.308594 22.640625 20.355469 22.574219 C 20.523438 22.339844 20.691406 22.105469 20.855469 21.871094 C 20.871094 21.851562 20.886719 21.824219 20.90625 21.808594 C 20.972656 21.757812 20.96875 21.726562 20.933594 21.753906 C 20.898438 21.78125 20.890625 21.84375 20.871094 21.894531 Z M 23.371094 17.558594 C 23.328125 17.554688 23.261719 17.527344 23.238281 17.546875 C 22.980469 17.765625 22.730469 17.992188 22.679688 18.355469 C 22.460938 18.347656 22.492188 18.527344 22.457031 18.65625 C 22.136719 18.640625 22.019531 18.917969 21.863281 19.101562 C 20.566406 20.636719 19.28125 22.1875 17.996094 23.738281 C 17.828125 23.941406 17.683594 24.164062 17.535156 24.382812 C 17.519531 24.40625 17.550781 24.484375 17.582031 24.507812 C 17.617188 24.53125 17.695312 24.535156 17.722656 24.511719 C 17.804688 24.449219 17.878906 24.371094 17.945312 24.289062 C 18.589844 23.480469 19.234375 22.671875 19.875 21.863281 C 20.730469 20.785156 21.582031 19.707031 22.4375 18.628906 C 22.511719 18.527344 22.585938 18.429688 22.660156 18.328125 C 22.929688 18.097656 23.171875 17.839844 23.355469 17.535156 C 23.394531 17.5 23.433594 17.46875 23.464844 17.425781 C 23.507812 17.367188 23.492188 17.332031 23.429688 17.34375 C 23.414062 17.34375 23.40625 17.386719 23.398438 17.410156 C 23.386719 17.457031 23.382812 17.507812 23.371094 17.558594 Z M 26.003906 16.859375 C 25.9375 16.816406 25.875 16.820312 25.804688 16.867188 C 25.628906 17 25.574219 17.1875 25.546875 17.394531 C 25.523438 17.390625 25.5 17.382812 25.476562 17.386719 C 25.464844 17.386719 25.453125 17.402344 25.441406 17.414062 C 25.46875 17.398438 25.5 17.382812 25.527344 17.363281 C 25.683594 17.1875 25.835938 17.011719 25.988281 16.835938 C 26.023438 16.804688 26.070312 16.78125 26.09375 16.746094 C 26.109375 16.71875 26.09375 16.671875 26.089844 16.632812 C 26.0625 16.660156 26.027344 16.6875 26.015625 16.71875 C 26 16.761719 26.007812 16.8125 26.003906 16.859375 Z M 31.527344 26.777344 C 31.609375 26.808594 31.667969 26.773438 31.726562 26.71875 C 31.78125 26.671875 31.792969 26.640625 31.734375 26.601562 C 31.71875 26.59375 31.675781 26.601562 31.667969 26.613281 C 31.621094 26.671875 31.582031 26.738281 31.539062 26.796875 C 31.503906 26.847656 31.46875 26.894531 31.476562 26.886719 C 31.472656 26.894531 31.5 26.835938 31.527344 26.777344 Z M 5.65625 41.089844 C 5.8125 41.171875 5.863281 41.03125 5.941406 40.949219 C 5.945312 40.941406 5.933594 40.898438 5.921875 40.894531 C 5.882812 40.875 5.824219 40.84375 5.796875 40.859375 C 5.707031 40.910156 5.671875 41.003906 5.667969 41.105469 C 5.492188 41.121094 5.449219 41.242188 5.441406 41.386719 C 5.277344 41.351562 5.199219 41.488281 5.125 41.582031 C 4.761719 42.027344 4.410156 42.480469 4.066406 42.917969 C 4.257812 43.386719 4.558594 43.726562 4.902344 44.019531 C 5.972656 44.9375 7.015625 45.886719 8.148438 46.726562 C 8.363281 46.886719 8.585938 47.03125 8.808594 47.175781 C 9.0625 47.332031 9.34375 47.410156 9.632812 47.457031 C 9.71875 47.46875 9.769531 47.394531 9.804688 47.320312 C 9.917969 47.359375 10.015625 47.308594 10.089844 47.234375 C 10.507812 46.828125 10.914062 46.410156 11.230469 45.921875 C 11.324219 45.785156 11.484375 45.648438 11.414062 45.445312 C 11.273438 45.398438 11.222656 45.5 11.171875 45.585938 C 10.878906 46.0625 10.511719 46.476562 10.132812 46.882812 C 10.007812 47.015625 9.839844 47.121094 9.800781 47.320312 C 9.511719 47.167969 9.46875 47.085938 9.601562 46.9375 C 9.742188 46.777344 9.894531 46.628906 10.035156 46.46875 C 10.40625 46.050781 10.78125 45.640625 11.046875 45.144531 C 11.109375 45.023438 11.050781 44.949219 10.902344 44.898438 C 10.738281 45.089844 10.566406 45.289062 10.390625 45.488281 C 10.058594 45.871094 9.726562 46.25 9.390625 46.625 C 9.320312 46.703125 9.234375 46.765625 9.144531 46.820312 C 9.113281 46.839844 9.035156 46.816406 9.007812 46.789062 C 8.976562 46.757812 8.953125 46.675781 8.972656 46.648438 C 9.09375 46.476562 9.21875 46.304688 9.355469 46.144531 C 9.730469 45.699219 10.113281 45.257812 10.492188 44.808594 C 10.539062 44.753906 10.5625 44.671875 10.585938 44.601562 C 10.59375 44.582031 10.582031 44.539062 10.5625 44.53125 C 10.523438 44.507812 10.46875 44.476562 10.429688 44.488281 C 10.269531 44.539062 10.1875 44.683594 10.082031 44.800781 C 9.636719 45.292969 9.191406 45.789062 8.746094 46.277344 C 8.691406 46.335938 8.628906 46.390625 8.558594 46.425781 C 8.523438 46.445312 8.449219 46.445312 8.417969 46.421875 C 8.386719 46.394531 8.371094 46.324219 8.378906 46.277344 C 8.417969 46.050781 8.601562 45.921875 8.738281 45.765625 C 9.179688 45.269531 9.625 44.773438 10.066406 44.277344 C 10.183594 44.148438 10.152344 44.046875 9.992188 43.949219 C 9.914062 44.003906 9.816406 44.054688 9.75 44.128906 C 9.359375 44.5625 8.96875 45 8.582031 45.4375 C 8.425781 45.613281 8.277344 45.804688 8.113281 45.976562 C 8.058594 46.035156 7.964844 46.039062 7.910156 45.96875 C 7.878906 45.933594 7.859375 45.859375 7.875 45.824219 C 7.917969 45.730469 7.976562 45.640625 8.039062 45.558594 C 8.515625 44.917969 9.042969 44.324219 9.597656 43.765625 C 9.511719 43.636719 9.417969 43.566406 9.316406 43.640625 C 9.011719 43.859375 8.769531 44.140625 8.539062 44.4375 C 8.296875 44.75 8.039062 45.054688 7.78125 45.359375 C 7.714844 45.445312 7.613281 45.503906 7.519531 45.410156 C 7.433594 45.320312 7.480469 45.203125 7.542969 45.121094 C 7.652344 44.96875 7.777344 44.828125 7.894531 44.6875 C 8.253906 44.261719 8.613281 43.835938 8.96875 43.40625 C 8.992188 43.375 8.980469 43.3125 8.976562 43.265625 C 8.972656 43.203125 8.835938 43.1875 8.78125 43.246094 C 8.324219 43.730469 7.832031 44.183594 7.453125 44.730469 C 7.34375 44.886719 7.246094 45.042969 7.070312 45.125 C 7.03125 45.140625 6.957031 45.132812 6.929688 45.109375 C 6.898438 45.078125 6.878906 45.007812 6.890625 44.96875 C 6.914062 44.894531 6.953125 44.820312 7 44.757812 C 7.308594 44.324219 7.632812 43.90625 8.015625 43.53125 C 8.183594 43.363281 8.335938 43.179688 8.484375 42.992188 C 8.53125 42.929688 8.519531 42.835938 8.453125 42.777344 C 8.394531 42.714844 8.308594 42.699219 8.242188 42.753906 C 8.144531 42.839844 8.054688 42.941406 7.96875 43.039062 C 7.53125 43.539062 7.09375 44.039062 6.65625 44.539062 C 6.582031 44.621094 6.503906 44.679688 6.382812 44.660156 C 6.296875 44.527344 6.335938 44.398438 6.417969 44.292969 C 6.582031 44.085938 6.757812 43.886719 6.945312 43.695312 C 7.332031 43.296875 7.6875 42.871094 8.011719 42.367188 C 7.886719 42.273438 7.84375 42.089844 7.578125 42.164062 C 7.039062 42.792969 6.46875 43.457031 5.898438 44.117188 C 5.847656 44.175781 5.753906 44.195312 5.691406 44.136719 C 5.660156 44.109375 5.644531 44.035156 5.652344 43.988281 C 5.695312 43.742188 5.863281 43.570312 6.023438 43.390625 C 6.414062 42.957031 6.800781 42.515625 7.183594 42.074219 C 7.265625 41.976562 7.359375 41.871094 7.308594 41.726562 C 7.234375 41.597656 7.109375 41.554688 6.949219 41.507812 C 6.511719 41.878906 6.191406 42.367188 5.84375 42.832031 C 5.703125 43.023438 5.570312 43.226562 5.414062 43.402344 C 5.308594 43.519531 5.175781 43.496094 5.078125 43.332031 C 5.492188 42.722656 5.910156 42.113281 6.390625 41.546875 C 6.460938 41.46875 6.519531 41.378906 6.5625 41.285156 C 6.574219 41.257812 6.523438 41.199219 6.496094 41.15625 C 6.480469 41.140625 6.441406 41.121094 6.425781 41.128906 C 6.332031 41.171875 6.226562 41.207031 6.152344 41.273438 C 5.777344 41.617188 5.472656 42.019531 5.171875 42.425781 C 5.027344 42.617188 4.882812 42.804688 4.726562 42.988281 C 4.671875 43.058594 4.585938 43.046875 4.53125 42.976562 C 4.503906 42.9375 4.476562 42.867188 4.492188 42.835938 C 4.585938 42.671875 4.699219 42.527344 4.792969 42.367188 C 4.984375 42.023438 5.328125 41.773438 5.429688 41.371094 C 5.621094 41.371094 5.648438 41.238281 5.65625 41.089844 Z M 23.453125 31.953125 C 23.425781 32.015625 23.386719 32.082031 23.511719 32.058594 C 23.484375 32.027344 23.457031 31.996094 23.429688 31.964844 C 23.429688 31.820312 23.347656 31.730469 23.222656 31.671875 C 23.167969 31.917969 23.167969 31.917969 23.453125 31.953125 Z M 20.070312 18.886719 C 19.859375 18.882812 19.863281 19.035156 19.855469 19.179688 C 19.640625 19.148438 19.667969 19.324219 19.628906 19.441406 C 19.609375 19.453125 19.585938 19.464844 19.566406 19.472656 C 19.582031 19.453125 19.597656 19.4375 19.613281 19.417969 C 19.769531 19.398438 19.800781 19.273438 19.835938 19.15625 C 19.992188 19.128906 20.066406 19.03125 20.066406 18.878906 C 20.277344 18.878906 20.289062 18.738281 20.28125 18.582031 C 20.355469 18.621094 20.421875 18.601562 20.480469 18.546875 C 20.753906 18.289062 21.019531 18.023438 21.179688 17.671875 C 21.332031 17.636719 21.371094 17.511719 21.402344 17.382812 C 21.605469 17.34375 21.703125 17.175781 21.824219 17.039062 C 22.492188 16.28125 23.15625 15.523438 23.820312 14.761719 C 23.960938 14.601562 24.09375 14.4375 24.222656 14.269531 C 24.277344 14.203125 24.289062 14.125 24.234375 14.046875 C 24.050781 14.035156 23.953125 14.167969 23.847656 14.28125 C 23.035156 15.160156 22.292969 16.09375 21.554688 17.035156 C 21.46875 17.144531 21.421875 17.265625 21.417969 17.402344 C 21.207031 17.390625 21.195312 17.539062 21.195312 17.691406 C 21.144531 17.6875 21.078125 17.667969 21.054688 17.6875 C 20.769531 17.96875 20.496094 18.253906 20.296875 18.601562 C 20.140625 18.632812 20.074219 18.734375 20.070312 18.886719 Z M 27.273438 12.0625 C 27.078125 12.042969 27.074219 12.195312 27.039062 12.316406 C 26.71875 12.429688 26.558594 12.714844 26.359375 12.953125 C 25.859375 13.546875 25.3125 14.085938 24.738281 14.601562 C 23.679688 15.542969 22.734375 16.585938 21.941406 17.757812 C 21.222656 18.820312 20.378906 19.765625 19.488281 20.683594 C 18.582031 21.621094 17.753906 22.621094 16.976562 23.671875 C 16.234375 24.671875 15.488281 25.671875 14.535156 26.503906 C 13.996094 26.976562 13.542969 27.535156 13.140625 28.136719 C 12.726562 28.75 12.277344 29.347656 11.832031 29.941406 C 11.035156 31.003906 10.207031 32.042969 9.429688 33.117188 C 8.667969 34.171875 7.953125 35.261719 7.210938 36.328125 C 7.0625 36.539062 7.023438 36.757812 7.054688 37.003906 C 7.105469 37.402344 7.089844 37.796875 7.066406 38.195312 C 7.015625 39.070312 7.011719 39.949219 7.238281 40.808594 C 7.257812 40.886719 7.289062 40.953125 7.359375 40.949219 C 7.484375 40.910156 7.464844 40.824219 7.460938 40.75 C 7.410156 39.871094 7.367188 38.996094 7.296875 38.121094 C 7.28125 37.933594 7.296875 37.757812 7.332031 37.574219 C 7.421875 37.121094 7.625 36.726562 7.886719 36.351562 C 8.417969 35.589844 8.9375 34.820312 9.476562 34.0625 C 10.089844 33.195312 10.734375 32.351562 11.328125 31.472656 C 11.714844 30.894531 12.148438 30.363281 12.601562 29.839844 C 13.136719 29.21875 13.671875 28.59375 14.210938 27.972656 C 14.730469 27.371094 15.257812 26.769531 15.777344 26.171875 C 15.832031 26.109375 15.878906 26.046875 15.921875 25.980469 C 16.96875 24.371094 18.179688 22.890625 19.421875 21.433594 C 20.765625 19.855469 22.109375 18.277344 23.449219 16.695312 C 24.5 15.457031 25.546875 14.21875 26.703125 13.082031 C 26.929688 12.859375 27.039062 12.609375 27.023438 12.296875 C 27.21875 12.316406 27.210938 12.15625 27.257812 12.039062 C 27.300781 12.007812 27.34375 11.976562 27.378906 11.941406 C 27.386719 11.929688 27.375 11.898438 27.371094 11.878906 C 27.339844 11.9375 27.304688 12 27.273438 12.0625 Z M 26.511719 11.019531 C 26.550781 10.996094 26.59375 10.976562 26.625 10.945312 C 26.640625 10.933594 26.65625 10.898438 26.648438 10.882812 C 26.617188 10.824219 26.59375 10.835938 26.574219 10.910156 C 26.5625 10.953125 26.539062 10.992188 26.519531 11.035156 L 26.476562 11.058594 Z M 27.71875 10.847656 C 27.527344 10.835938 27.546875 11 27.5 11.109375 C 27.472656 11.117188 27.402344 11.148438 27.484375 11.085938 C 27.625 11.054688 27.667969 10.941406 27.703125 10.820312 C 27.882812 10.796875 27.921875 10.671875 27.917969 10.515625 C 28.082031 10.578125 28.15625 10.4375 28.242188 10.355469 C 28.894531 9.742188 29.539062 9.121094 30.171875 8.515625 C 30.171875 8.304688 30.175781 8.125 30.175781 7.945312 C 30.253906 7.976562 30.308594 7.9375 30.363281 7.882812 C 30.410156 7.835938 30.417969 7.800781 30.367188 7.769531 C 30.355469 7.761719 30.3125 7.773438 30.304688 7.785156 C 30.261719 7.84375 30.226562 7.910156 30.191406 7.972656 C 30.144531 7.992188 30.085938 8 30.054688 8.035156 C 29.351562 8.875 28.585938 9.65625 27.9375 10.542969 C 27.78125 10.585938 27.742188 10.710938 27.71875 10.847656 Z M 26.476562 9.078125 C 26.402344 9.171875 26.328125 9.265625 26.253906 9.359375 C 26.097656 9.371094 26.066406 9.5 26.019531 9.613281 C 25.863281 9.640625 25.828125 9.765625 25.792969 9.890625 C 25.757812 9.917969 25.71875 9.941406 25.6875 9.972656 C 25.679688 9.980469 25.691406 10.007812 25.695312 10.023438 C 25.71875 9.972656 25.746094 9.917969 25.773438 9.867188 C 25.996094 9.894531 25.992188 9.738281 26.003906 9.589844 C 26.21875 9.628906 26.179688 9.4375 26.234375 9.332031 C 26.375 9.292969 26.398438 9.15625 26.460938 9.058594 C 26.480469 9.050781 26.496094 9.046875 26.515625 9.042969 C 26.5 9.054688 26.488281 9.066406 26.476562 9.078125 Z M 28.34375 8.84375 C 28.382812 8.808594 28.429688 8.78125 28.460938 8.742188 C 28.507812 8.683594 28.488281 8.644531 28.421875 8.652344 C 28.40625 8.652344 28.394531 8.695312 28.390625 8.71875 C 28.375 8.769531 28.371094 8.820312 28.359375 8.871094 C 28.308594 8.859375 28.230469 8.789062 28.246094 8.921875 C 28.28125 8.894531 28.3125 8.867188 28.34375 8.84375 Z M 29.53125 7.988281 C 29.488281 8.015625 29.449219 8.042969 29.410156 8.074219 C 29.402344 8.082031 29.414062 8.113281 29.417969 8.132812 C 29.449219 8.078125 29.480469 8.019531 29.511719 7.964844 C 29.535156 7.957031 29.554688 7.953125 29.578125 7.945312 C 29.585938 7.941406 29.59375 7.929688 29.605469 7.921875 C 29.578125 7.945312 29.554688 7.964844 29.53125 7.988281 Z M 30.804688 8.09375 C 31.011719 8.097656 31.023438 7.957031 31.027344 7.808594 C 31.1875 7.90625 31.242188 7.742188 31.335938 7.675781 C 31.339844 7.675781 31.316406 7.628906 31.296875 7.617188 C 31.28125 7.605469 31.25 7.597656 31.226562 7.605469 C 31.117188 7.636719 31.066406 7.722656 31.042969 7.828125 C 30.890625 7.863281 30.839844 7.976562 30.820312 8.113281 C 30.765625 8.117188 30.65625 8.058594 30.734375 8.199219 C 30.757812 8.164062 30.78125 8.128906 30.804688 8.09375 Z M 30.171875 7.277344 C 30.34375 7.261719 30.34375 7.113281 30.382812 6.996094 C 30.40625 7.003906 30.425781 7.011719 30.449219 7.011719 C 30.460938 7.011719 30.476562 7 30.488281 6.996094 C 30.460938 7.003906 30.429688 7.015625 30.398438 7.023438 C 30.328125 7.117188 30.257812 7.210938 30.1875 7.304688 C 30.167969 7.3125 30.144531 7.316406 30.125 7.328125 C 30.117188 7.332031 30.113281 7.347656 30.105469 7.355469 C 30.125 7.332031 30.148438 7.304688 30.171875 7.277344 Z M 30.382812 5.683594 C 30.507812 5.691406 30.640625 5.757812 30.734375 5.613281 C 30.964844 5.605469 31.167969 5.777344 31.441406 5.699219 C 31.199219 5.558594 30.980469 5.527344 30.75 5.640625 C 30.628906 5.648438 30.5 5.609375 30.394531 5.703125 L 30.355469 5.726562 Z M 18.742188 42.867188 C 18.667969 42.957031 18.59375 43.046875 18.519531 43.136719 C 18.136719 43.367188 17.785156 43.621094 17.648438 44.078125 C 17.429688 44.0625 17.457031 44.234375 17.429688 44.363281 C 17.402344 44.359375 17.378906 44.351562 17.355469 44.355469 C 17.339844 44.359375 17.332031 44.382812 17.320312 44.394531 C 17.351562 44.375 17.382812 44.355469 17.414062 44.335938 C 17.554688 44.296875 17.609375 44.191406 17.636719 44.058594 C 18.007812 43.925781 18.242188 43.636719 18.457031 43.332031 C 18.496094 43.273438 18.488281 43.1875 18.503906 43.113281 C 18.6875 43.125 18.652344 42.933594 18.738281 42.855469 C 18.753906 42.804688 18.769531 42.804688 18.785156 42.851562 C 18.785156 42.851562 18.757812 42.863281 18.742188 42.867188 Z M 6.136719 39.757812 L 6.128906 39.707031 L 6.15625 39.746094 C 6.164062 39.808594 6.175781 39.871094 6.183594 39.933594 C 6.195312 39.914062 6.21875 39.890625 6.214844 39.878906 C 6.195312 39.835938 6.164062 39.796875 6.136719 39.757812 Z M 20.363281 40.957031 C 20.125 40.917969 20.160156 41.101562 20.136719 41.238281 C 20.0625 41.183594 19.992188 41.207031 19.933594 41.265625 C 19.648438 41.578125 19.363281 41.890625 19.210938 42.296875 L 19.171875 42.320312 L 19.199219 42.273438 C 19.355469 42.304688 19.433594 42.183594 19.507812 42.09375 C 19.734375 41.816406 19.972656 41.542969 20.121094 41.214844 C 20.238281 41.152344 20.308594 41.054688 20.347656 40.933594 C 20.5 40.894531 20.566406 40.792969 20.566406 40.640625 C 20.804688 40.667969 20.878906 40.46875 20.988281 40.335938 C 21.8125 39.328125 22.636719 38.316406 23.445312 37.300781 C 23.828125 36.820312 24.179688 36.320312 24.542969 35.832031 C 24.609375 35.738281 24.644531 35.636719 24.554688 35.546875 C 24.460938 35.457031 24.34375 35.492188 24.269531 35.574219 C 23.898438 35.988281 23.535156 36.414062 23.171875 36.835938 C 23.140625 36.875 23.09375 36.929688 23.101562 36.972656 C 23.15625 37.40625 22.828125 37.640625 22.597656 37.914062 C 21.949219 38.6875 21.332031 39.484375 20.738281 40.304688 C 20.660156 40.410156 20.585938 40.519531 20.582031 40.660156 C 20.378906 40.664062 20.359375 40.800781 20.363281 40.957031 Z M 20.394531 39.308594 C 20.261719 39.363281 20.214844 39.480469 20.179688 39.601562 C 19.980469 39.601562 19.988281 39.757812 19.960938 39.890625 C 19.734375 39.859375 19.78125 40.050781 19.730469 40.164062 C 19.511719 40.132812 19.558594 40.332031 19.496094 40.433594 C 19.125 40.621094 18.960938 41.003906 18.683594 41.28125 C 18.175781 41.789062 17.710938 42.339844 17.386719 42.992188 C 17.351562 43.058594 17.289062 43.117188 17.226562 43.160156 C 17.195312 43.1875 17.125 43.191406 17.089844 43.175781 C 17.046875 43.152344 17 43.09375 17 43.054688 C 17.003906 42.980469 17.03125 42.902344 17.0625 42.832031 C 17.328125 42.242188 17.738281 41.753906 18.164062 41.277344 C 19.027344 40.300781 19.792969 39.246094 20.71875 38.320312 C 20.738281 38.304688 20.753906 38.28125 20.769531 38.261719 C 21.105469 37.742188 21.53125 37.300781 21.984375 36.890625 C 22.65625 36.28125 23.117188 35.511719 23.703125 34.796875 C 23.085938 34.222656 22.53125 33.648438 22.015625 33.039062 C 21.480469 32.410156 21.007812 31.734375 20.578125 31.023438 C 20.164062 30.339844 19.816406 29.621094 19.523438 28.875 C 19.222656 28.105469 19.082031 27.292969 18.894531 26.488281 C 18.824219 26.53125 18.765625 26.546875 18.734375 26.585938 C 17.382812 28.292969 15.933594 29.929688 14.648438 31.691406 C 14.164062 32.359375 13.730469 33.0625 13.28125 33.75 C 12.804688 34.484375 12.339844 35.230469 11.859375 35.964844 C 11.71875 36.179688 11.578125 36.414062 11.261719 36.472656 C 11.246094 36.378906 11.199219 36.28125 11.230469 36.234375 C 11.519531 35.761719 11.824219 35.292969 12.128906 34.828125 C 12.726562 33.917969 13.316406 33.003906 13.933594 32.105469 C 14.445312 31.363281 14.972656 30.628906 15.53125 29.917969 C 16.308594 28.9375 17.121094 27.988281 17.910156 27.019531 C 18.164062 26.710938 18.390625 26.382812 18.636719 26.070312 C 18.859375 25.785156 18.917969 25.46875 18.882812 25.113281 C 18.800781 25.140625 18.734375 25.140625 18.710938 25.175781 C 17.9375 26.160156 17.152344 27.132812 16.410156 28.136719 C 15.425781 29.460938 14.472656 30.804688 13.519531 32.148438 C 12.917969 32.992188 12.339844 33.851562 11.75 34.703125 C 11.507812 35.054688 11.234375 35.382812 10.917969 35.667969 C 10.859375 35.722656 10.765625 35.710938 10.710938 35.640625 C 10.683594 35.601562 10.664062 35.535156 10.675781 35.492188 C 10.703125 35.421875 10.753906 35.359375 10.800781 35.296875 C 11.03125 35.003906 11.277344 34.722656 11.492188 34.417969 C 12.042969 33.636719 12.570312 32.839844 13.125 32.0625 C 14.097656 30.695312 15.066406 29.328125 16.0625 27.984375 C 16.886719 26.875 17.726562 25.773438 18.609375 24.710938 C 18.945312 24.304688 19.113281 23.859375 19.320312 23.375 C 19.097656 23.417969 19.011719 23.558594 18.917969 23.679688 C 18.210938 24.578125 17.503906 25.476562 16.800781 26.378906 C 16.308594 27.007812 15.828125 27.640625 15.328125 28.265625 C 14.980469 28.703125 14.617188 29.125 14.257812 29.550781 C 14.207031 29.613281 14.15625 29.691406 14.089844 29.71875 C 13.546875 29.945312 13.335938 30.425781 13.121094 30.914062 C 13.023438 31.128906 12.902344 31.339844 12.761719 31.527344 C 12.457031 31.929688 12.136719 32.324219 11.8125 32.707031 C 10.730469 33.992188 9.765625 35.359375 8.886719 36.789062 C 8.824219 36.890625 8.785156 37.042969 8.609375 37.019531 C 8.492188 37.003906 8.472656 36.792969 8.570312 36.601562 C 8.621094 36.507812 8.675781 36.414062 8.734375 36.328125 C 9.265625 35.5625 9.730469 34.753906 10.316406 34.027344 C 11.015625 33.15625 11.699219 32.273438 12.390625 31.398438 C 12.542969 31.207031 13.351562 29.777344 13.472656 29.476562 C 13.515625 29.453125 13.558594 29.4375 13.597656 29.40625 C 13.605469 29.402344 13.59375 29.367188 13.59375 29.34375 C 13.558594 29.394531 13.523438 29.445312 13.488281 29.5 C 13.359375 29.46875 13.289062 29.550781 13.230469 29.636719 C 12.765625 30.28125 12.183594 30.832031 11.746094 31.503906 C 11.398438 32.035156 11.042969 32.5625 10.664062 33.074219 C 9.828125 34.207031 9 35.34375 8.214844 36.507812 C 8 36.820312 7.867188 37.164062 7.703125 37.496094 C 7.636719 37.632812 7.597656 37.8125 7.621094 37.957031 C 7.734375 38.667969 7.636719 39.386719 7.726562 40.09375 C 7.738281 40.175781 7.761719 40.246094 7.84375 40.28125 C 7.824219 40.453125 7.6875 40.632812 7.890625 40.785156 C 7.878906 40.832031 7.863281 40.878906 7.863281 40.929688 C 7.863281 40.960938 7.890625 40.988281 7.90625 41.019531 C 7.921875 40.980469 7.957031 40.9375 7.949219 40.902344 C 7.941406 40.863281 7.894531 40.832031 7.863281 40.800781 C 7.882812 40.628906 8.011719 40.449219 7.820312 40.292969 C 7.941406 40.082031 7.820312 39.769531 8.066406 39.609375 C 8.21875 39.667969 8.222656 39.78125 8.230469 39.882812 C 8.253906 40.253906 8.3125 40.625 8.289062 40.992188 C 8.253906 41.503906 8.46875 41.851562 8.875 42.117188 C 8.941406 42.160156 9.015625 42.195312 9.078125 42.246094 C 9.777344 42.8125 10.503906 43.34375 11.0625 44.070312 C 11.386719 44.488281 11.78125 44.847656 12.203125 45.179688 C 12.398438 45.328125 12.605469 45.4375 12.851562 45.457031 C 13.644531 45.523438 14.4375 45.59375 15.234375 45.652344 C 15.613281 45.679688 15.976562 45.582031 16.320312 45.441406 C 16.640625 45.304688 16.929688 45.109375 16.964844 44.707031 C 16.992188 44.710938 17.015625 44.726562 17.039062 44.722656 C 17.054688 44.722656 17.066406 44.699219 17.082031 44.6875 C 17.046875 44.703125 17.015625 44.71875 16.980469 44.734375 C 16.933594 44.757812 16.886719 44.78125 16.839844 44.804688 C 16.765625 44.835938 16.683594 44.863281 16.617188 44.800781 C 16.523438 44.714844 16.539062 44.621094 16.621094 44.53125 C 16.96875 44.132812 17.277344 43.691406 17.671875 43.347656 C 18.453125 42.65625 19.003906 41.78125 19.652344 40.984375 C 19.695312 40.929688 19.6875 40.835938 19.703125 40.761719 C 19.722656 40.761719 19.746094 40.769531 19.765625 40.765625 C 19.78125 40.761719 19.792969 40.746094 19.804688 40.738281 C 19.773438 40.753906 19.746094 40.769531 19.71875 40.785156 C 19.410156 40.695312 19.410156 40.691406 19.480469 40.40625 C 19.558594 40.320312 19.636719 40.230469 19.714844 40.140625 C 19.792969 40.050781 19.867188 39.957031 19.945312 39.863281 C 20.015625 39.769531 20.089844 39.671875 20.164062 39.578125 C 20.308594 39.535156 20.335938 39.402344 20.378906 39.28125 C 20.398438 39.28125 20.417969 39.28125 20.441406 39.277344 C 20.453125 39.273438 20.460938 39.265625 20.472656 39.257812 C 20.445312 39.273438 20.417969 39.292969 20.394531 39.308594 Z M 21.738281 37.804688 C 21.808594 37.714844 21.882812 37.625 21.953125 37.535156 C 21.96875 37.523438 21.988281 37.507812 22.003906 37.496094 C 21.992188 37.515625 21.980469 37.539062 21.964844 37.558594 C 21.789062 37.566406 21.800781 37.722656 21.753906 37.832031 C 21.730469 37.828125 21.707031 37.820312 21.683594 37.824219 C 21.667969 37.824219 21.65625 37.84375 21.644531 37.855469 C 21.675781 37.835938 21.707031 37.820312 21.738281 37.804688 Z M 7.742188 32.910156 C 7.664062 33 7.589844 33.089844 7.511719 33.175781 C 6.882812 33.679688 6.472656 34.355469 6.097656 35.046875 C 5.773438 35.652344 5.5625 36.300781 5.652344 37.007812 C 5.660156 37.09375 5.699219 37.148438 5.785156 37.167969 C 5.742188 37.285156 5.65625 37.398438 5.78125 37.527344 C 5.847656 37.398438 5.863281 37.285156 5.757812 37.179688 C 5.777344 37.050781 5.835938 36.914062 5.808594 36.792969 C 5.734375 36.425781 5.894531 36.128906 6.0625 35.835938 C 6.460938 35.132812 6.871094 34.429688 7.285156 33.730469 C 7.394531 33.550781 7.511719 33.375 7.496094 33.152344 C 7.667969 33.152344 7.65625 32.984375 7.734375 32.894531 L 7.777344 32.875 Z M 24.21875 32.820312 L 24.199219 32.777344 L 24.238281 32.8125 C 24.257812 32.855469 24.273438 32.898438 24.296875 32.9375 C 24.304688 32.945312 24.339844 32.933594 24.363281 32.929688 C 24.316406 32.894531 24.269531 32.855469 24.21875 32.820312 Z M 10.476562 28.960938 C 10.40625 29.054688 10.332031 29.148438 10.257812 29.246094 C 10.136719 29.296875 10.042969 29.375 10.039062 29.523438 C 9.769531 29.484375 9.679688 29.667969 9.59375 29.867188 C 9.5625 29.902344 9.523438 29.933594 9.496094 29.96875 C 9.453125 30.027344 9.46875 30.058594 9.527344 30.046875 C 9.539062 30.042969 9.546875 30.003906 9.550781 29.984375 C 9.5625 29.9375 9.570312 29.890625 9.578125 29.84375 C 9.859375 29.898438 9.925781 29.683594 10.023438 29.5 C 10.164062 29.460938 10.171875 29.316406 10.242188 29.21875 C 10.375 29.171875 10.398438 29.039062 10.464844 28.9375 C 10.480469 28.929688 10.5 28.925781 10.515625 28.921875 C 10.503906 28.933594 10.492188 28.945312 10.476562 28.960938 Z M 26.285156 32.511719 C 26.089844 32.5 26.097656 32.660156 26.058594 32.78125 C 25.894531 32.785156 25.886719 32.925781 25.832031 33.027344 L 25.777344 33.039062 L 25.816406 33.007812 C 25.890625 32.921875 25.964844 32.839844 26.039062 32.753906 C 26.117188 32.664062 26.195312 32.574219 26.273438 32.484375 C 26.308594 32.449219 26.347656 32.414062 26.378906 32.375 C 26.386719 32.363281 26.375 32.335938 26.371094 32.316406 C 26.34375 32.382812 26.3125 32.445312 26.285156 32.511719 Z M 11.722656 28.59375 C 11.535156 28.597656 11.523438 28.742188 11.5 28.875 C 11.085938 28.984375 10.921875 29.3125 10.804688 29.683594 C 10.363281 29.949219 10.128906 30.398438 9.820312 30.78125 C 9.71875 30.910156 9.625 31.035156 9.625 31.207031 C 9.164062 31.511719 8.886719 31.960938 8.671875 32.453125 C 8.5 32.472656 8.472656 32.605469 8.445312 32.738281 C 8.253906 32.820312 8.238281 33.003906 8.1875 33.167969 C 7.996094 33.167969 7.996094 33.320312 7.960938 33.445312 C 7.925781 33.464844 7.804688 33.398438 7.875 33.527344 C 7.898438 33.492188 7.921875 33.457031 7.945312 33.417969 C 8.125 33.414062 8.132812 33.265625 8.167969 33.144531 C 8.351562 33.058594 8.398438 32.890625 8.429688 32.714844 C 8.65625 32.742188 8.65625 32.585938 8.65625 32.433594 C 9.125 32.105469 9.394531 31.757812 9.613281 31.191406 C 9.660156 31.183594 9.730469 31.199219 9.753906 31.171875 C 10.078125 30.769531 10.402344 30.367188 10.710938 29.957031 C 10.769531 29.882812 10.769531 29.761719 10.792969 29.664062 C 10.875 29.683594 10.9375 29.65625 10.988281 29.59375 C 11.179688 29.363281 11.375 29.136719 11.484375 28.851562 C 11.648438 28.828125 11.671875 28.695312 11.703125 28.570312 C 11.726562 28.5625 11.75 28.5625 11.773438 28.554688 C 11.785156 28.550781 11.789062 28.53125 11.796875 28.519531 C 11.773438 28.542969 11.746094 28.570312 11.722656 28.59375 Z M 12.652344 28.160156 C 12.460938 28.140625 12.476562 28.316406 12.414062 28.421875 C 12.183594 28.605469 11.96875 28.800781 11.921875 29.113281 C 11.75 29.132812 11.71875 29.261719 11.695312 29.398438 C 11.519531 29.402344 11.492188 29.535156 11.464844 29.667969 C 11.164062 29.949219 10.839844 30.214844 10.746094 30.644531 C 10.566406 30.660156 10.554688 30.808594 10.519531 30.9375 C 10.332031 30.925781 10.320312 31.070312 10.285156 31.195312 C 10.113281 31.207031 10.089844 31.34375 10.054688 31.46875 C 9.847656 31.675781 9.582031 31.839844 9.566406 32.179688 C 9.375 32.171875 9.367188 32.324219 9.335938 32.453125 C 9.210938 32.453125 9.15625 32.546875 9.089844 32.628906 C 8.828125 32.960938 8.5625 33.292969 8.296875 33.621094 C 7.714844 34.339844 7.238281 35.144531 6.515625 35.75 C 6.421875 35.828125 6.371094 35.96875 6.328125 36.09375 C 6.222656 36.394531 6.160156 36.703125 6.175781 37.027344 C 6.191406 37.320312 6.238281 37.617188 6.195312 37.902344 C 6.097656 38.519531 6.285156 39.050781 6.65625 39.664062 C 6.648438 38.769531 6.785156 37.980469 6.695312 37.195312 C 6.648438 36.742188 6.746094 36.375 7.003906 36.007812 C 7.753906 34.949219 8.480469 33.875 9.21875 32.804688 C 9.292969 32.691406 9.339844 32.574219 9.320312 32.433594 C 9.542969 32.464844 9.523438 32.292969 9.554688 32.160156 C 9.855469 32.019531 10.015625 31.777344 10.035156 31.445312 C 10.261719 31.484375 10.257812 31.324219 10.269531 31.179688 C 10.488281 31.210938 10.460938 31.03125 10.5 30.914062 C 10.683594 30.898438 10.695312 30.753906 10.730469 30.621094 C 11.109375 30.402344 11.359375 30.082031 11.449219 29.648438 C 11.671875 29.683594 11.671875 29.523438 11.683594 29.378906 C 11.90625 29.398438 11.894531 29.238281 11.90625 29.09375 C 12.238281 28.976562 12.347656 28.707031 12.394531 28.394531 C 12.597656 28.421875 12.589844 28.25 12.636719 28.136719 C 12.679688 28.113281 12.738281 28.105469 12.765625 28.070312 C 12.785156 28.042969 12.773438 27.988281 12.773438 27.945312 C 12.746094 27.96875 12.707031 27.984375 12.691406 28.015625 C 12.667969 28.058594 12.664062 28.109375 12.652344 28.160156 Z M 27.230469 31.242188 C 27.1875 31.261719 27.144531 31.277344 27.105469 31.304688 C 27.09375 31.3125 27.105469 31.347656 27.105469 31.371094 C 27.140625 31.316406 27.175781 31.265625 27.214844 31.214844 C 27.390625 31.191406 27.425781 31.0625 27.4375 30.917969 C 27.484375 30.914062 27.554688 30.933594 27.578125 30.910156 C 27.855469 30.632812 28.175781 30.390625 28.332031 30.011719 C 28.371094 29.980469 28.425781 29.960938 28.445312 29.921875 C 28.464844 29.890625 28.445312 29.839844 28.445312 29.796875 C 28.417969 29.828125 28.378906 29.855469 28.367188 29.886719 C 28.351562 29.933594 28.355469 29.984375 28.351562 30.03125 C 28.304688 30.023438 28.238281 29.992188 28.21875 30.011719 C 27.910156 30.277344 27.621094 30.5625 27.453125 30.941406 C 27.289062 30.972656 27.265625 31.113281 27.230469 31.242188 Z M 28.773438 30.296875 C 28.609375 30.3125 28.597656 30.457031 28.539062 30.5625 C 28.386719 30.589844 28.347656 30.710938 28.3125 30.835938 C 28.160156 30.863281 28.117188 30.984375 28.082031 31.109375 C 27.886719 31.109375 27.867188 31.246094 27.863281 31.390625 C 27.839844 31.382812 27.804688 31.359375 27.792969 31.367188 C 27.304688 31.722656 26.921875 32.164062 26.710938 32.742188 C 26.46875 32.8125 26.390625 33.054688 26.21875 33.199219 C 26 33.386719 25.957031 33.625 25.957031 33.890625 C 25.59375 33.898438 25.578125 33.90625 25.519531 34.191406 C 25.503906 34.265625 25.5 34.347656 25.492188 34.425781 C 25.390625 34.386719 25.273438 34.355469 25.199219 34.449219 C 25.050781 34.632812 24.914062 34.828125 24.78125 35.023438 C 24.730469 35.101562 24.769531 35.175781 24.847656 35.214844 C 24.882812 35.230469 24.960938 35.21875 24.984375 35.1875 C 25.175781 34.945312 25.464844 34.765625 25.480469 34.414062 C 25.769531 34.34375 25.855469 34.101562 25.941406 33.863281 C 26.253906 33.523438 26.550781 33.171875 26.695312 32.71875 C 26.742188 32.707031 26.808594 32.710938 26.835938 32.675781 C 27.175781 32.242188 27.511719 31.804688 27.847656 31.367188 C 27.992188 31.328125 28.03125 31.210938 28.066406 31.082031 C 28.230469 31.066406 28.242188 30.921875 28.292969 30.808594 C 28.46875 30.800781 28.464844 30.644531 28.519531 30.535156 C 28.648438 30.492188 28.691406 30.375 28.753906 30.269531 C 28.832031 30.171875 28.910156 30.074219 28.988281 29.976562 C 29.1875 29.84375 29.335938 29.664062 29.453125 29.457031 C 29.511719 29.382812 29.574219 29.3125 29.628906 29.234375 C 29.636719 29.222656 29.632812 29.1875 29.621094 29.167969 C 29.589844 29.121094 29.546875 29.132812 29.527344 29.199219 C 29.503906 29.292969 29.488281 29.386719 29.472656 29.480469 C 29.402344 29.441406 29.34375 29.445312 29.28125 29.503906 C 29.132812 29.640625 29.023438 29.796875 29.003906 30 C 28.800781 30.003906 28.839844 30.191406 28.773438 30.296875 Z M 13.042969 25.789062 C 12.84375 25.78125 12.847656 25.9375 12.816406 26.066406 C 12.613281 26.054688 12.617188 26.210938 12.585938 26.339844 C 12.386719 26.332031 12.398438 26.496094 12.355469 26.617188 C 12.203125 26.644531 12.183594 26.785156 12.125 26.894531 C 12.003906 26.945312 11.949219 27.054688 11.890625 27.160156 C 11.851562 27.191406 11.8125 27.214844 11.777344 27.246094 C 11.765625 27.253906 11.777344 27.285156 11.78125 27.304688 C 11.8125 27.246094 11.84375 27.191406 11.875 27.136719 C 12.007812 27.09375 12.039062 26.964844 12.109375 26.867188 C 12.238281 26.820312 12.28125 26.699219 12.339844 26.589844 C 12.492188 26.5625 12.523438 26.433594 12.570312 26.316406 C 12.730469 26.296875 12.757812 26.160156 12.796875 26.039062 C 12.960938 26.023438 12.984375 25.886719 13.027344 25.765625 C 13.195312 25.742188 13.234375 25.621094 13.253906 25.480469 C 13.449219 25.496094 13.515625 25.324219 13.621094 25.21875 C 14 24.816406 14.335938 24.375 14.867188 24.125 C 15.089844 24.019531 15.28125 23.804688 15.40625 23.554688 C 15.527344 23.320312 15.679688 23.097656 15.839844 22.890625 C 16.386719 22.203125 16.9375 21.523438 17.492188 20.839844 C 17.996094 20.222656 18.550781 19.652344 19.136719 19.109375 C 20.050781 18.253906 20.886719 17.324219 21.65625 16.339844 C 22.375 15.417969 23.105469 14.5 23.945312 13.683594 C 24.445312 13.199219 24.894531 12.679688 25.277344 12.101562 C 26.332031 10.5 27.503906 8.992188 28.847656 7.613281 C 28.917969 7.542969 28.957031 7.441406 29.007812 7.351562 C 29.054688 7.34375 29.171875 7.398438 29.082031 7.269531 C 29.0625 7.304688 29.042969 7.335938 29.019531 7.371094 C 28.777344 7.335938 28.636719 7.515625 28.492188 7.65625 C 28.015625 8.117188 27.546875 8.585938 27.082031 9.0625 C 26.878906 9.269531 26.6875 9.492188 26.503906 9.71875 C 25.585938 10.855469 24.683594 12.003906 23.757812 13.136719 C 22.886719 14.207031 21.964844 15.238281 21.132812 16.34375 C 20.414062 17.300781 19.671875 18.238281 18.824219 19.089844 C 18.5625 19.351562 18.300781 19.617188 18.054688 19.894531 C 16.863281 21.214844 15.671875 22.539062 14.484375 23.863281 C 14.148438 24.238281 13.816406 24.621094 13.484375 25 C 13.359375 25.140625 13.257812 25.296875 13.265625 25.496094 C 13.070312 25.503906 13.074219 25.660156 13.042969 25.789062 Z M 14.246094 26.199219 C 14.398438 26.167969 14.457031 26.066406 14.460938 25.917969 C 14.816406 25.796875 14.964844 25.648438 15.113281 25.261719 C 15.332031 25.269531 15.347656 25.128906 15.328125 24.964844 C 15.566406 24.992188 15.660156 24.878906 15.703125 24.59375 C 15.527344 24.742188 15.402344 24.832031 15.347656 24.988281 C 15.1875 25.023438 15.140625 25.140625 15.128906 25.28125 C 14.792969 25.386719 14.59375 25.625 14.472656 25.9375 C 14.300781 25.957031 14.292969 26.101562 14.261719 26.222656 C 14.238281 26.226562 14.214844 26.234375 14.191406 26.238281 C 14.210938 26.226562 14.226562 26.210938 14.246094 26.199219 Z M 30.410156 28.210938 C 30.367188 28.230469 30.320312 28.246094 30.28125 28.273438 C 30.269531 28.277344 30.277344 28.316406 30.28125 28.335938 C 30.316406 28.289062 30.355469 28.238281 30.390625 28.1875 C 30.433594 28.167969 30.488281 28.164062 30.519531 28.132812 C 30.5625 28.089844 30.550781 28.042969 30.496094 28.027344 C 30.488281 28.023438 30.460938 28.058594 30.453125 28.078125 C 30.433594 28.121094 30.421875 28.167969 30.410156 28.210938 Z M 16.441406 23.136719 C 16.371094 23.230469 16.296875 23.324219 16.222656 23.414062 C 16.050781 23.425781 16.03125 23.558594 16.003906 23.683594 C 15.90625 23.65625 15.839844 23.707031 15.789062 23.78125 C 15.714844 23.878906 15.644531 23.976562 15.570312 24.074219 C 15.398438 24.097656 15.363281 24.21875 15.359375 24.363281 C 15.253906 24.3125 15.191406 24.371094 15.144531 24.453125 C 15.015625 24.507812 14.929688 24.59375 14.921875 24.738281 C 14.683594 24.753906 14.597656 24.941406 14.496094 25.113281 C 14.359375 25.171875 14.296875 25.28125 14.277344 25.421875 C 14.09375 25.425781 14.097656 25.585938 14.050781 25.703125 C 13.917969 25.742188 13.875 25.863281 13.816406 25.972656 C 13.789062 26 13.757812 26.03125 13.730469 26.0625 C 13.753906 26.023438 13.777344 25.984375 13.796875 25.945312 C 13.933594 25.902344 13.96875 25.777344 14.03125 25.675781 C 14.183594 25.640625 14.21875 25.515625 14.261719 25.394531 C 14.457031 25.378906 14.480469 25.242188 14.476562 25.089844 C 14.730469 25.101562 14.808594 25.035156 14.910156 24.722656 C 15.132812 24.734375 15.113281 24.566406 15.128906 24.425781 C 15.238281 24.496094 15.292969 24.417969 15.34375 24.339844 C 15.492188 24.300781 15.546875 24.191406 15.554688 24.050781 C 15.765625 24.054688 15.742188 23.882812 15.773438 23.753906 C 15.890625 23.820312 15.945312 23.75 15.988281 23.65625 C 16.15625 23.644531 16.164062 23.503906 16.203125 23.390625 C 16.347656 23.355469 16.367188 23.21875 16.433594 23.117188 L 16.476562 23.101562 Z M 32.65625 25.605469 C 32.609375 25.617188 32.550781 25.609375 32.523438 25.636719 C 32.46875 25.691406 32.449219 25.765625 32.519531 25.828125 C 32.523438 25.828125 32.59375 25.773438 32.613281 25.734375 C 32.632812 25.691406 32.632812 25.636719 32.644531 25.589844 C 32.683594 25.582031 32.71875 25.574219 32.757812 25.566406 C 32.742188 25.542969 32.722656 25.519531 32.707031 25.496094 C 32.6875 25.53125 32.671875 25.570312 32.65625 25.605469 Z M 21.460938 29.074219 C 21.484375 29.097656 21.410156 28.960938 21.480469 29.058594 C 21.496094 29.074219 21.511719 29.089844 21.527344 29.105469 C 21.503906 29.09375 21.480469 29.082031 21.460938 29.074219 Z M 38.691406 10.289062 C 38.695312 10.199219 38.65625 10.132812 38.585938 10.078125 C 38.402344 9.882812 38.355469 9.570312 38.058594 9.480469 C 38.019531 9.257812 37.859375 9.148438 37.679688 9.050781 C 37.648438 9.007812 37.621094 8.960938 37.585938 8.925781 C 37.535156 8.878906 37.480469 8.878906 37.460938 8.933594 C 37.453125 8.949219 37.511719 9 37.546875 9.015625 C 37.59375 9.03125 37.648438 9.027344 37.703125 9.03125 C 37.699219 9.253906 37.78125 9.351562 38.078125 9.464844 C 38.117188 9.789062 38.316406 9.96875 38.613281 10.0625 C 38.542969 10.183594 38.613281 10.238281 38.714844 10.273438 C 38.703125 10.367188 38.757812 10.425781 38.832031 10.46875 C 38.960938 10.6875 39.089844 10.902344 39.21875 11.117188 C 39.273438 11.207031 39.351562 11.269531 39.464844 11.265625 C 39.414062 11.378906 39.453125 11.445312 39.578125 11.464844 C 39.515625 11.566406 39.5625 11.632812 39.652344 11.683594 C 39.636719 11.941406 39.785156 12.132812 39.917969 12.328125 C 39.992188 12.4375 40.074219 12.542969 40.140625 12.65625 C 40.179688 12.71875 40.195312 12.808594 40.113281 12.859375 C 40.046875 12.90625 39.949219 12.917969 39.898438 12.847656 C 39.769531 12.683594 39.65625 12.503906 39.539062 12.332031 C 39.296875 11.984375 39.054688 11.636719 38.8125 11.292969 C 38.410156 11.207031 38.277344 10.792969 37.964844 10.601562 C 37.921875 10.285156 37.695312 10.085938 37.480469 9.898438 C 37.023438 9.5 36.539062 9.128906 36.078125 8.730469 C 35.464844 8.199219 34.734375 7.898438 33.988281 7.613281 C 33.730469 7.515625 33.464844 7.511719 33.203125 7.554688 C 32.957031 7.597656 32.671875 7.582031 32.523438 7.855469 C 32.316406 7.761719 32.164062 7.976562 32 7.957031 C 31.582031 7.914062 31.375 8.179688 31.132812 8.425781 C 30.101562 9.460938 29.15625 10.574219 28.179688 11.648438 C 28.238281 11.816406 28.320312 11.960938 28.1875 12.113281 C 28.117188 12.191406 28.066406 12.285156 28.007812 12.371094 C 27.941406 12.402344 27.855469 12.417969 27.804688 12.46875 C 26.582031 13.6875 25.421875 14.960938 24.296875 16.265625 C 24.242188 16.332031 24.109375 16.394531 24.207031 16.523438 C 24.378906 16.589844 24.4375 16.441406 24.519531 16.351562 C 24.875 15.960938 25.226562 15.566406 25.582031 15.171875 C 26.347656 14.324219 27.109375 13.480469 27.878906 12.636719 C 27.953125 12.550781 27.996094 12.464844 27.996094 12.351562 C 28.160156 12.398438 28.230469 12.261719 28.308594 12.171875 C 28.796875 11.621094 29.265625 11.058594 29.757812 10.507812 C 30.300781 9.902344 30.84375 9.296875 31.414062 8.714844 C 31.648438 8.472656 31.949219 8.292969 32.21875 8.085938 C 32.320312 8.007812 32.46875 7.988281 32.515625 7.847656 C 32.621094 7.84375 32.726562 7.855469 32.824219 7.832031 C 33.253906 7.726562 33.660156 7.792969 34.070312 7.941406 C 34.75 8.191406 35.394531 8.515625 35.933594 8.988281 C 36.554688 9.527344 37.296875 9.917969 37.839844 10.550781 C 37.863281 10.582031 37.9375 10.574219 37.988281 10.585938 C 37.8125 10.902344 37.726562 10.9375 37.542969 10.777344 C 37.5 10.742188 37.464844 10.703125 37.429688 10.664062 C 36.945312 10.117188 36.332031 9.726562 35.722656 9.359375 C 35.253906 9.074219 34.722656 8.871094 34.265625 8.558594 C 33.511719 8.039062 32.800781 8.214844 32.101562 8.632812 C 31.898438 8.75 31.734375 8.9375 31.566406 9.105469 C 31.359375 9.3125 31.179688 9.546875 30.964844 9.742188 C 30.246094 10.382812 29.691406 11.167969 29.046875 11.871094 C 28.417969 12.558594 27.839844 13.289062 27.207031 13.96875 C 25.96875 15.289062 24.726562 16.605469 23.613281 18.03125 C 23.5 18.179688 23.402344 18.363281 23.25 18.453125 C 22.820312 18.703125 22.570312 19.113281 22.261719 19.476562 C 21.933594 19.859375 21.621094 20.253906 21.3125 20.65625 C 21.246094 20.742188 21.078125 20.804688 21.171875 20.972656 C 21.808594 20.714844 22.296875 20.289062 22.738281 19.773438 C 23.648438 18.699219 24.597656 17.65625 25.53125 16.605469 C 25.621094 16.503906 25.710938 16.410156 25.808594 16.316406 C 26.757812 15.421875 27.578125 14.40625 28.417969 13.414062 C 29.140625 12.558594 29.949219 11.789062 30.710938 10.972656 C 30.78125 10.898438 30.878906 10.847656 30.972656 10.804688 C 31 10.792969 31.0625 10.839844 31.101562 10.867188 C 31.121094 10.878906 31.140625 10.917969 31.132812 10.933594 C 31.109375 11.007812 31.09375 11.097656 31.042969 11.148438 C 30.511719 11.707031 29.96875 12.257812 29.4375 12.8125 C 29.21875 13.039062 28.9375 13.21875 28.886719 13.566406 C 28.710938 13.582031 28.691406 13.722656 28.660156 13.851562 C 28.484375 13.859375 28.476562 14 28.4375 14.117188 C 28.417969 14.125 28.394531 14.125 28.375 14.132812 C 28.363281 14.136719 28.355469 14.152344 28.34375 14.160156 C 28.371094 14.136719 28.398438 14.117188 28.421875 14.09375 C 28.585938 14.078125 28.613281 13.953125 28.640625 13.828125 C 28.832031 13.824219 28.863281 13.695312 28.875 13.550781 C 29.179688 13.726562 29.234375 13.824219 29.089844 14.003906 C 28.957031 14.167969 28.800781 14.3125 28.652344 14.46875 C 28.019531 15.148438 27.355469 15.808594 26.753906 16.515625 C 25.890625 17.527344 25.070312 18.574219 24.238281 19.609375 C 24.164062 19.703125 24.03125 19.769531 24.054688 19.917969 C 24.082031 19.9375 24.101562 19.96875 24.121094 19.96875 C 24.253906 19.972656 24.386719 19.976562 24.519531 19.96875 C 25.921875 19.902344 27.277344 20.152344 28.601562 20.601562 C 30.101562 21.113281 31.488281 21.835938 32.785156 22.746094 C 32.992188 22.890625 33.167969 23.117188 33.449219 23.136719 C 33.71875 22.964844 33.871094 22.710938 34.046875 22.480469 C 34.453125 21.957031 34.859375 21.429688 35.261719 20.898438 C 35.503906 20.582031 35.742188 20.261719 35.972656 19.9375 C 36.621094 19.027344 37.265625 18.117188 37.914062 17.207031 C 38 17.082031 38.0625 16.914062 38.265625 16.953125 C 38.390625 16.976562 38.371094 17.203125 38.210938 17.429688 C 37.765625 18.058594 37.316406 18.683594 36.863281 19.308594 C 36.753906 19.460938 36.640625 19.609375 36.640625 19.808594 C 36.449219 19.804688 36.457031 19.96875 36.40625 20.085938 C 36.234375 20.171875 36.207031 20.347656 36.148438 20.507812 C 35.984375 20.535156 35.960938 20.675781 35.914062 20.796875 C 35.777344 20.832031 35.734375 20.953125 35.679688 21.0625 C 35.605469 21.15625 35.53125 21.25 35.453125 21.339844 C 35.378906 21.433594 35.304688 21.527344 35.226562 21.621094 C 35.1875 21.648438 35.148438 21.675781 35.113281 21.710938 C 35.105469 21.71875 35.117188 21.746094 35.121094 21.765625 C 35.148438 21.707031 35.179688 21.652344 35.210938 21.59375 C 35.398438 21.589844 35.390625 21.429688 35.4375 21.3125 C 35.636719 21.320312 35.625 21.160156 35.664062 21.035156 C 35.875 21.0625 35.847656 20.882812 35.898438 20.769531 C 36.09375 20.769531 36.089844 20.609375 36.128906 20.480469 C 36.378906 20.441406 36.324219 20.214844 36.390625 20.0625 C 36.59375 20.078125 36.601562 19.925781 36.628906 19.792969 C 37.179688 19.445312 37.515625 18.898438 37.878906 18.390625 C 38.269531 17.847656 38.660156 17.316406 39.082031 16.800781 C 39.347656 16.46875 39.589844 16.117188 39.839844 15.773438 C 39.902344 15.6875 39.941406 15.585938 40.011719 15.507812 C 40.078125 15.429688 40.160156 15.335938 40.277344 15.410156 C 40.386719 15.476562 40.390625 15.578125 40.328125 15.679688 C 40.023438 16.214844 39.648438 16.695312 39.269531 17.171875 C 38.953125 17.570312 38.628906 17.957031 38.347656 18.375 C 38.046875 18.816406 37.710938 19.226562 37.375 19.640625 C 36.859375 20.28125 36.375 20.949219 35.882812 21.605469 C 35.855469 21.644531 35.863281 21.707031 35.855469 21.757812 C 35.828125 21.757812 35.792969 21.742188 35.777344 21.753906 C 35.265625 22.242188 34.777344 22.746094 34.484375 23.40625 C 34.300781 23.410156 34.273438 23.542969 34.257812 23.683594 C 34.234375 23.683594 34.207031 23.675781 34.1875 23.679688 C 34.171875 23.683594 34.160156 23.726562 34.164062 23.726562 C 34.207031 23.753906 34.234375 23.730469 34.246094 23.660156 C 34.441406 23.671875 34.464844 23.535156 34.472656 23.386719 C 34.519531 23.386719 34.589844 23.402344 34.613281 23.375 C 35.066406 22.863281 35.453125 22.300781 35.84375 21.742188 C 35.972656 21.773438 36.039062 21.683594 36.105469 21.605469 C 37.1875 20.367188 38.355469 19.207031 39.316406 17.855469 C 39.964844 16.941406 40.527344 15.988281 40.945312 14.949219 C 41.128906 14.496094 41.238281 14.046875 40.808594 13.640625 C 40.707031 13.542969 40.695312 13.351562 40.636719 13.203125 C 40.410156 12.636719 40.199219 12.0625 39.730469 11.636719 C 39.722656 11.535156 39.675781 11.46875 39.5625 11.472656 C 39.601562 11.363281 39.546875 11.304688 39.449219 11.277344 C 39.371094 10.902344 39.117188 10.671875 38.804688 10.488281 C 38.804688 10.398438 38.777344 10.328125 38.691406 10.289062 Z M 28.042969 7.320312 C 27.953125 7.300781 27.890625 7.34375 27.84375 7.414062 C 27.734375 7.480469 27.636719 7.558594 27.628906 7.707031 C 27.433594 7.703125 27.453125 7.875 27.398438 7.988281 C 27.371094 8.023438 27.339844 8.058594 27.308594 8.09375 C 27.332031 8.050781 27.355469 8.003906 27.378906 7.960938 C 27.53125 7.929688 27.578125 7.8125 27.613281 7.683594 C 27.820312 7.683594 27.804688 7.519531 27.828125 7.382812 C 27.933594 7.441406 27.988281 7.382812 28.03125 7.296875 C 28.140625 7.246094 28.035156 7.3125 28.042969 7.320312 Z M 29.652344 6.054688 C 29.5625 6.050781 29.5 6.09375 29.472656 6.179688 C 29.167969 6.101562 28.984375 6.230469 28.886719 6.511719 C 28.707031 6.523438 28.722656 6.6875 28.675781 6.800781 C 28.648438 6.800781 28.625 6.792969 28.601562 6.800781 C 28.589844 6.800781 28.578125 6.820312 28.566406 6.832031 C 28.597656 6.8125 28.628906 6.792969 28.65625 6.769531 C 28.785156 6.722656 28.878906 6.648438 28.875 6.496094 C 28.976562 6.558594 29.0625 6.527344 29.140625 6.457031 C 29.246094 6.359375 29.351562 6.257812 29.457031 6.15625 C 29.519531 6.117188 29.585938 6.078125 29.648438 6.039062 C 29.660156 5.988281 29.699219 5.992188 29.691406 6.03125 C 29.671875 6.136719 29.75 6.007812 29.652344 6.054688 Z M 11.929688 45.746094 C 11.691406 46.054688 11.46875 46.320312 11.269531 46.601562 C 10.96875 47.015625 10.578125 47.339844 10.1875 47.660156 C 9.902344 47.890625 9.597656 47.957031 9.230469 47.753906 C 8.792969 47.507812 8.320312 47.324219 7.886719 47.125 C 7.578125 47.171875 7.464844 47.484375 7.179688 47.523438 C 6.886719 47.5625 6.675781 47.382812 6.441406 47.292969 C 6.210938 47.347656 6.070312 47.503906 5.921875 47.660156 C 5.261719 48.351562 4.597656 49.039062 3.925781 49.722656 C 3.738281 49.910156 3.523438 50.070312 3.316406 50.238281 C 3.210938 50.324219 3.074219 50.34375 2.9375 50.335938 C 2.640625 50.324219 2.453125 50.089844 2.5 49.800781 C 2.554688 49.449219 2.753906 49.160156 2.945312 48.875 C 3.464844 48.105469 3.996094 47.339844 4.523438 46.574219 C 4.644531 46.398438 4.792969 46.238281 4.824219 45.984375 C 4.808594 45.734375 4.492188 45.625 4.453125 45.335938 C 4.40625 45.027344 4.65625 44.855469 4.703125 44.597656 C 4.714844 44.390625 4.554688 44.265625 4.449219 44.121094 C 4.226562 43.820312 4.011719 43.511719 3.773438 43.230469 C 3.570312 42.992188 3.574219 42.746094 3.671875 42.480469 C 3.855469 41.976562 4.160156 41.539062 4.5 41.128906 C 4.738281 40.84375 4.984375 40.566406 5.246094 40.261719 C 5.078125 39.675781 4.910156 39.089844 4.738281 38.507812 C 4.632812 38.148438 4.535156 37.789062 4.414062 37.4375 C 4.226562 36.890625 4.28125 36.335938 4.320312 35.777344 C 4.335938 35.550781 4.449219 35.371094 4.574219 35.203125 C 4.996094 34.621094 5.417969 34.039062 5.777344 33.417969 C 5.855469 33.28125 5.972656 33.164062 6.082031 33.050781 C 6.382812 32.746094 6.65625 32.421875 6.886719 32.0625 C 6.945312 31.972656 7.003906 31.882812 7.070312 31.800781 C 8.714844 29.816406 10.277344 27.757812 12.023438 25.855469 C 13.066406 24.71875 14.109375 23.578125 15.132812 22.421875 C 15.695312 21.785156 16.210938 21.105469 16.753906 20.453125 C 17.582031 19.449219 18.421875 18.449219 19.25 17.445312 C 19.386719 17.28125 19.542969 17.121094 19.628906 16.933594 C 19.835938 16.492188 20.183594 16.15625 20.449219 15.765625 C 21.019531 14.921875 21.773438 14.234375 22.347656 13.402344 C 22.378906 13.359375 22.40625 13.3125 22.445312 13.277344 C 23.445312 12.238281 24.238281 11.035156 25.078125 9.875 C 25.765625 8.921875 26.546875 8.054688 27.34375 7.195312 C 27.925781 6.566406 28.609375 6.050781 29.296875 5.546875 C 29.882812 5.117188 30.5625 4.992188 31.269531 5.089844 C 33.625 5.410156 35.710938 6.308594 37.53125 7.867188 C 38.453125 8.660156 39.210938 9.585938 39.914062 10.542969 C 40.511719 11.355469 40.96875 12.273438 41.273438 13.246094 C 41.519531 14.03125 41.507812 14.785156 41.121094 15.558594 C 40.644531 16.515625 40.109375 17.421875 39.476562 18.28125 C 38.777344 19.226562 38.011719 20.109375 37.199219 20.953125 C 36.703125 21.46875 36.210938 21.996094 35.753906 22.550781 C 35.316406 23.082031 34.910156 23.640625 34.472656 24.175781 C 33.984375 24.769531 33.507812 25.375 32.996094 25.953125 C 32.664062 26.332031 32.378906 26.753906 31.957031 27.050781 C 31.894531 27.09375 31.839844 27.15625 31.789062 27.21875 C 31.203125 27.9375 30.613281 28.660156 30.027344 29.382812 C 29.476562 30.0625 28.949219 30.765625 28.375 31.429688 C 27.710938 32.195312 27.085938 32.988281 26.507812 33.816406 C 25.546875 35.1875 24.527344 36.519531 23.503906 37.84375 C 22.855469 38.6875 22.171875 39.503906 21.492188 40.324219 C 20.8125 41.136719 20.082031 41.914062 19.433594 42.753906 C 18.828125 43.535156 18.089844 44.195312 17.472656 44.949219 C 16.789062 45.785156 15.9375 46.0625 14.933594 46.003906 C 13.949219 45.949219 12.96875 45.839844 11.929688 45.746094 " fill-opacity="1" fill-rule="nonzero"/></g></g></g></g></g><g clip-path="url(#a63409f66d)"><g clip-path="url(#0c75be9dea)"><g clip-path="url(#6d25c84952)"><g clip-path="url(#7e8fd807a9)"><path fill="#231f20" d="M 12.734375 44.996094 C 12.734375 44.894531 12.78125 44.820312 12.855469 44.808594 C 12.984375 44.785156 13.121094 44.785156 13.25 44.792969 C 13.914062 44.832031 14.578125 44.878906 15.242188 44.925781 C 15.292969 44.929688 15.351562 44.945312 15.390625 44.972656 C 15.425781 45.003906 15.464844 45.058594 15.464844 45.101562 C 15.464844 45.140625 15.421875 45.199219 15.382812 45.214844 C 15.078125 45.339844 14.75 45.261719 14.4375 45.261719 C 13.9375 45.261719 13.433594 45.167969 12.929688 45.101562 C 12.859375 45.09375 12.796875 45.03125 12.734375 44.996094 " fill-opacity="1" fill-rule="nonzero"/></g></g></g></g><g clip-path="url(#5e553ab7a5)"><g clip-path="url(#590e286711)"><g clip-path="url(#af59239f46)"><g clip-path="url(#4c37a4bf8e)"><path fill="#231f20" d="M 13.273438 43.085938 C 13.292969 43.101562 13.320312 43.117188 13.324219 43.136719 C 13.335938 43.1875 13.34375 43.238281 13.339844 43.285156 C 13.339844 43.304688 13.3125 43.328125 13.289062 43.34375 C 12.824219 43.609375 12.308594 43.730469 11.785156 43.8125 C 11.75 43.820312 11.6875 43.761719 11.671875 43.722656 C 11.660156 43.683594 11.671875 43.609375 11.703125 43.585938 C 11.785156 43.523438 11.875 43.464844 11.976562 43.433594 C 12.355469 43.3125 12.738281 43.199219 13.121094 43.089844 C 13.167969 43.074219 13.222656 43.085938 13.273438 43.085938 " fill-opacity="1" fill-rule="nonzero"/></g></g></g></g><g clip-path="url(#9eade282d2)"><g clip-path="url(#bcb7625749)"><g clip-path="url(#b107f045a1)"><g clip-path="url(#18423e984e)"><path fill="#231f20" d="M 11.535156 43.261719 C 11.414062 43.09375 11.457031 42.980469 11.597656 42.914062 C 12 42.722656 12.410156 42.546875 12.820312 42.359375 C 12.964844 42.472656 12.90625 42.59375 12.808594 42.683594 C 12.441406 43.011719 12 43.167969 11.535156 43.261719 " fill-opacity="1" fill-rule="nonzero"/></g></g></g></g><g clip-path="url(#a44245cb65)"><g clip-path="url(#19ae421799)"><g clip-path="url(#0c51ca2ba3)"><g clip-path="url(#db1df7409a)"><path fill="#231f20" d="M 9.941406 41.109375 C 10.050781 40.78125 10.214844 40.453125 10.457031 40.171875 C 10.476562 40.144531 10.558594 40.148438 10.597656 40.164062 C 10.636719 40.183594 10.6875 40.25 10.679688 40.28125 C 10.644531 40.40625 10.582031 40.523438 10.539062 40.644531 C 10.464844 40.863281 10.28125 41.035156 10.308594 41.300781 C 10.316406 41.394531 10.191406 41.476562 10.074219 41.449219 C 9.957031 41.421875 9.917969 41.324219 9.929688 41.207031 C 9.929688 41.183594 9.933594 41.15625 9.941406 41.109375 " fill-opacity="1" fill-rule="nonzero"/></g></g></g></g><g clip-path="url(#259687d2cc)"><g clip-path="url(#6bcffdc704)"><g clip-path="url(#b057917b9e)"><g clip-path="url(#a66310991c)"><path fill="#231f20" d="M 14.480469 44.625 C 14.503906 44.636719 14.40625 44.59375 14.3125 44.554688 C 14.25 44.527344 14.234375 44.476562 14.273438 44.421875 C 14.296875 44.382812 14.332031 44.34375 14.375 44.328125 C 14.417969 44.3125 14.476562 44.316406 14.527344 44.320312 C 14.789062 44.332031 15.050781 44.34375 15.3125 44.363281 C 15.414062 44.371094 15.535156 44.390625 15.53125 44.523438 C 15.527344 44.648438 15.402344 44.667969 15.300781 44.699219 C 15.066406 44.765625 14.832031 44.730469 14.480469 44.625 " fill-opacity="1" fill-rule="nonzero"/></g></g></g></g><g clip-path="url(#05f7a729a0)"><g clip-path="url(#9a8749359a)"><g clip-path="url(#c307aaf584)"><g clip-path="url(#2bb2e1f49b)"><path fill="#231f20" d="M 12.117188 41.660156 C 12.230469 41.773438 12.277344 41.882812 12.164062 41.953125 C 11.917969 42.109375 11.660156 42.242188 11.402344 42.382812 C 11.328125 42.421875 11.25 42.417969 11.195312 42.34375 C 11.136719 42.261719 11.167969 42.1875 11.230469 42.136719 C 11.5 41.917969 11.804688 41.765625 12.117188 41.660156 " fill-opacity="1" fill-rule="nonzero"/></g></g></g></g><g clip-path="url(#ddd6df0d4e)"><g clip-path="url(#348a21ad51)"><g clip-path="url(#2ead363316)"><g clip-path="url(#bac9c6946d)"><path fill="#231f20" d="M 10.042969 40.070312 C 9.96875 40.296875 9.925781 40.53125 9.722656 40.679688 C 9.6875 40.707031 9.625 40.714844 9.582031 40.707031 C 9.496094 40.683594 9.460938 40.601562 9.488281 40.527344 C 9.59375 40.265625 9.710938 40.003906 9.828125 39.75 C 9.84375 39.714844 9.910156 39.691406 9.957031 39.6875 C 10.066406 39.679688 10.070312 39.777344 10.078125 39.847656 C 10.082031 39.921875 10.054688 40 10.042969 40.070312 " fill-opacity="1" fill-rule="nonzero"/></g></g></g></g></g></g></g></svg>